<svg xmlns="http://www.w3.org/2000/svg" xmlns:xlink="http://www.w3.org/1999/xlink" x="0" y="0" version="1.1" viewBox="0 0 500 500" style="enable-background:new 0 0 500 500" xml:space="preserve"><g id="Background_Complete"><g><g><g><g><g><circle style="fill:#ebebeb" cx="70.967" cy="422.709" r="29.968"/></g></g></g><g><g><g><path style="fill:#e0e0e0" d="M84.088,437.871c-0.753,1.157-0.89,2.602-1.099,3.974c-0.209,1.372-0.568,2.829-1.603,3.733 c-1.035,0.903-2.935,0.85-3.504-0.411c-0.309-0.685-0.151-1.492-0.319-2.226c-0.22-0.956-0.966-1.693-1.321-2.606 c-0.302-0.779-0.303-1.639-0.328-2.476c-0.135-4.574-1.229-9.348-4.286-12.701c-0.375-0.412-0.802-0.813-1.335-0.957 c-0.634-0.171-1.358,0.083-1.754,0.617c-0.245,0.331-0.372,0.753-0.673,1.033c-0.653,0.607-1.794,0.172-2.23-0.612 c-0.436-0.784-0.376-1.745-0.303-2.643c0.09-1.114,0.181-2.227,0.271-3.341c0.047-0.582,0.112-1.208,0.487-1.65 c0.534-0.629,1.491-0.658,2.143-1.157c0.856-0.653,0.97-1.899,1.51-2.84c0.54-0.941,2.229-1.338,2.479-0.279 c1.787-3.896,5.735,1.892,8.083,1.457c0.682-0.126,1.348-0.46,2.034-0.362c1.212,0.173,1.838,1.533,2.25,2.707 c0.685,1.949,1.369,3.897,2.054,5.846c0.261,0.742,0.598,1.567,1.319,1.852c0.553,0.219,1.195,0.052,1.753,0.258 c1.473,0.546,0.994,2.909-0.191,3.954c-1.186,1.045-2.85,1.705-3.413,3.195c-0.425,1.123-0.086,2.439-0.543,3.548 C85.243,436.58,84.555,437.154,84.088,437.871z"/></g></g></g><g><g><g><path style="fill:#e0e0e0" d="M52.352,446.174h0.005c0.301,0.25,0.608,0.487,0.919,0.718 c0.245,0.184,0.493,0.365,0.743,0.542c0.251,0.177,0.504,0.349,0.761,0.517c0.179,0.118,0.359,0.232,0.543,0.345 c-0.023-0.054-0.046-0.102-0.069-0.156c-0.644-1.485-0.657-3.616,0.773-4.332c0.273-0.137,0.583-0.211,0.808-0.422 c0.639-0.603,0.136-1.868,0.775-2.471c0.36-0.335,0.916-0.305,1.361-0.503c0.798-0.364,1.067-1.397,1.015-2.289 c-0.056-0.887-0.331-1.772-0.221-2.657c0.172-1.34,1.215-2.689,0.639-3.907c-0.645-1.359-2.573-1.163-3.921-1.784 c-1.882-0.869-2.439-3.269-3.656-4.973c-1.09-1.524-3.657-3.215-5.631-2.782c-1.43,0.313-1.93,1.174-2.089,2.238 c-0.062-0.01-0.119-0.021-0.18-0.031c-0.527-0.064-1.145-0.1-1.429-0.549c-0.332-0.522,0.01-1.288-0.331-1.801 c-0.178-0.268-0.49-0.388-0.744-0.58c-0.255-0.187-0.469-0.538-0.309-0.817c0.131-0.236,0.464-0.28,0.633-0.496 c0.135-0.173,0.133-0.439-0.002-0.606c-0.534-0.66-1.154,0.665-1.457,0.976c-0.087,0.091-0.168,0.168-0.245,0.23v0.005 c-0.005,0.058-0.011,0.111-0.012,0.169c-0.009,0.182-0.011,0.367-0.016,0.552c-0.005,0.185-0.014,0.368-0.016,0.552 c-0.002,0.15,0.001,0.298,0.002,0.448c0.001,0.15-0.001,0.3,0.002,0.448c-0.001,0.073-0.002,0.141,0.002,0.213 c0.08,3.406,0.644,6.777,1.736,9.827c0.498,1.391,1.052,2.684,1.746,3.976c0.288,0.56,0.605,1.111,0.937,1.653 c0.411,0.668,0.933,1.402,1.396,2.032c0.43,0.606,0.879,1.149,1.362,1.716c0.661,0.788,1.369,1.509,2.107,2.224 C50.941,445.036,51.641,445.599,52.352,446.174"/></g></g></g><g><g><g><path style="fill:#e0e0e0" d="M99.127,412.434c-0.149-0.292-0.2-0.659-0.301-0.958c-1.131-3.322-4.038-4.852-5.843-7.449 c-0.589-0.845-1.047-1.543-2.106-1.72c-1.566-0.265-2.37,0.636-3.465-0.892c-0.295-0.41-0.813-0.794-1.258-0.557 c0.11,0.326,0.225,0.652,0.336,0.982c0.023,0.068,0.046,0.141,0.035,0.214c-0.026,0.228-0.36,0.287-0.549,0.159 c-0.189-0.133-0.281-0.362-0.412-0.552c-0.486-0.727-1.645-0.833-2.256-0.215c-0.02-0.306-0.217-0.594-0.491-0.723 c-0.069,0.595-0.744,1.028-1.303,0.833c-0.087-0.297,0.432-0.344,0.616-0.594c0.169-0.235-0.027-0.567-0.238-0.768 c-0.56-0.51-1.303-0.814-2.059-0.842c-0.48-0.015-0.999,0.071-1.415-0.186c-0.241-0.148-0.409-0.392-0.655-0.536 c-0.524-0.311-1.188-0.038-1.724,0.256c-0.732,0.403-1.489,0.913-1.755,1.719c-0.271,0.801,0.292,1.897,1.12,1.805 c0.209-0.027,0.429-0.126,0.633-0.065c0.294,0.086,0.423,0.436,0.443,0.746c0.02,0.305-0.017,0.634,0.128,0.907 c0.14,0.273,0.571,0.413,0.74,0.159c0.394-0.373,0.354-1.008,0.26-1.547c-0.089-0.539-0.191-1.145,0.128-1.583 c0.324-0.437,1.225-0.286,1.157,0.256c-0.042,0.319-0.401,0.548-0.391,0.872c0.011,0.329,0.403,0.508,0.727,0.498 c0.323-0.006,0.653-0.123,0.966-0.037c0.318,0.081,0.565,0.505,0.334,0.74c-0.4,0.451-1.418-0.341-1.629,0.223 c-0.059,0.145-0.004,0.31-0.02,0.465c-0.044,0.474-0.63,0.642-1.097,0.695c-0.466,0.048-0.962,0.091-1.382-0.118 c-0.421-0.208-0.704-0.778-0.457-1.182c-0.236-0.177-0.599-0.007-0.73,0.263c-0.131,0.265-0.097,0.585-0.062,0.881 c-0.493-0.117-0.94,0.304-1.225,0.722c-0.29,0.423-0.567,0.914-1.049,1.059c-0.487,0.145-1.15-0.066-1.407,0.376 c-0.335,0.578,0.607,1.325,0.268,1.897c-0.194,0.322-0.65,0.307-1.013,0.405c-0.959,0.265-1.308,1.685-0.665,2.453 c0.638,0.768,1.946,0.739,2.643,0.021c0.486-0.493,0.689-1.194,1.043-1.79c0.354-0.592,1.016-1.127,1.67-0.925 c0.256,0.081,0.472,0.267,0.675,0.444c0.315,0.275,0.631,0.55,0.946,0.829c0.202,0.177,0.423,0.397,0.401,0.668 c-0.021,0.218-0.19,0.385-0.263,0.588c-0.206,0.584,0.619,1.15,1.146,0.837c0.531-0.314,0.593-1.132,0.242-1.639 c-0.486-0.703-1.6-1.065-1.561-1.927c0.576-0.468,1.469,0.041,1.794,0.718c0.325,0.672,0.325,1.467,0.598,2.162 c0.273,0.701,1.05,1.325,1.71,0.993c-0.164-0.602-0.324-1.2-0.488-1.798c0.422-0.315,0.892,0.62,1.392,0.471 c0.305-0.093,0.348-0.539,0.219-0.84c-0.125-0.302-0.36-0.556-0.413-0.882c-0.088-0.592,0.564-1.112,1.148-1.009 c0.579,0.104,0.996,0.675,1.098,1.263c0.04,0.233,0.047,0.48,0.144,0.694c0.213,0.467,0.777,0.614,1.241,0.814 c0.469,0.199,0.948,0.684,0.747,1.157c-0.093,0.207-0.309,0.403-0.235,0.617c0.069,0.19,0.344,0.275,0.342,0.479 c-0.006,0.135-0.145,0.226-0.27,0.278c-0.315,0.127-0.658,0.167-0.964,0.313c-0.306,0.142-0.585,0.439-0.565,0.778 c0.032,0.485,0.595,0.724,0.857,1.129c0.252,0.385,0.209,0.894,0.365,1.331c0.147,0.404,0.458,0.722,0.705,1.069 c0.777,1.104,0.946,2.515,1.316,3.818c0.164,0.588,0.471,1.245,1.059,1.364c0.323,0.062,0.647-0.06,0.953-0.178 c0.855-0.334,1.744-0.692,2.346-1.387c0.607-0.7,0.82-1.846,0.215-2.546c-0.075-0.093-0.174-0.176-0.288-0.192 c-0.161-0.021-0.305,0.089-0.449,0.155c-0.435,0.199-0.965,0.023-1.323-0.306c-0.353-0.324-0.566-0.777-0.775-1.215 c-0.227-0.482-0.455-0.969-0.687-1.456c0.283-0.239,0.729-0.132,1.016,0.109c0.283,0.241,0.455,0.587,0.684,0.88 c0.698,0.909,1.858,1.32,2.983,1.468c0.285,0.037,0.579,0.065,0.844,0.189c0.837,0.402,1.065,1.669,1.951,1.95 c0.246,0.08,0.522,0.069,0.754,0.183c0.35,0.173,0.521,0.582,0.621,0.966c0.187,0.714,0.245,1.466,0.532,2.147 c0.282,0.681,0.869,1.303,1.592,1.321c0.452,0.015,0.781-0.12,1.113-0.441l-0.041-0.085c0.046-0.668,0.134-1.229,0.142-1.908 c0.002-0.14-0.042-0.324-0.05-0.464c0.003-0.441,0.015-0.86-0.003-1.295c-0.018-0.435-0.078-0.969-0.116-1.4 c-0.029-0.349-0.074-0.621-0.118-0.965c-0.042-0.364-0.121-0.738-0.177-1.098c-0.165-1.081-0.631-3.027-0.908-4.069"/></g></g></g><g><g><g><path style="fill:#e0e0e0" d="M89.565,439.275c-0.485,0.064-1.054-0.186-1.425,0.137c-0.217,0.189-0.268,0.502-0.356,0.779 c-0.123,0.384-0.354,0.745-0.697,0.947c-0.343,0.202-0.807,0.213-1.119-0.034c-0.313-0.247-0.403-0.768-0.142-1.07 c0.119-0.138,0.29-0.218,0.422-0.343c0.65-0.611,0.223-1.764,0.72-2.494c0.293-0.431,0.752-0.866,1.073-1.301 c0.247-0.335,0.34-0.602,0.788-0.687C90.791,434.839,91.629,439.005,89.565,439.275z"/></g></g></g><g><g><g><path style="fill:#e0e0e0" d="M64.12,400.035c-0.599,0.355-0.924,1.036-1.389,1.56c-0.465,0.524-1.293,0.892-1.83,0.445 c-0.258-0.215-0.372-0.567-0.397-0.905c-0.037-0.487,0.084-0.985,0.34-1.398c0.264-0.427,0.662-0.76,0.887-1.21 c0.224-0.449,0.187-1.112-0.259-1.329c-0.242-0.117-0.547-0.076-0.761-0.24c-0.384-0.295-0.099-0.979,0.353-1.147 c0.452-0.168,0.95-0.028,1.429,0.009c1.74,0.133,3.034-1.014,4.354-1.964c1.027-0.739,3.206-1.6,4.375-0.82 c0.467,0.311,0.641,1.1,0.194,1.44c-0.2,0.152-0.474,0.184-0.66,0.353c-0.224,0.203-0.259,0.54-0.389,0.815 c-0.338,0.714-1.291,0.964-1.606,1.689c-0.189,0.437-0.113,0.983-0.401,1.36c-0.229,0.298-0.62,0.4-0.983,0.483 c-0.759,0.175-1.518,0.349-2.277,0.524C64.762,399.777,64.419,399.857,64.12,400.035z"/></g></g></g><g><g><g><path style="fill:#e0e0e0" d="M42.987,413.473c0.567-0.483,1.537-0.53,1.963,0.086c0.304,0.44,0.226,1.035,0.139,1.566 c-0.118,0.715-0.235,1.431-0.357,2.146c-0.036,0.213-0.067,0.445,0.021,0.645c0.204,0.457,0.937,0.379,1.222-0.025 c0.29-0.408,0.263-0.961,0.193-1.456c-0.07-0.5-0.164-1.024,0.032-1.487c0.489-1.147,2.174-0.954,3.162-1.693 c0.614-0.458,0.894-1.235,1.263-1.914c0.369-0.679,0.981-1.355,1.741-1.312c0.257,0.013,0.508,0.112,0.764,0.106 c0.751-0.016,1.202-1.129,0.676-1.678c-0.108-0.117-0.254-0.211-0.329-0.352c-0.13-0.258,0.016-0.586,0.247-0.758 c0.23-0.167,0.521-0.212,0.802-0.252c0.643-0.099,1.286-0.194,1.929-0.288c0.709-0.103,1.622-0.466,1.53-1.189 c-0.078-0.626-0.907-0.916-1.024-1.538c-0.031-0.151-0.011-0.315-0.076-0.456c-0.19-0.4-0.777-0.246-1.155-0.038 c-0.146-0.578-0.951-0.849-1.407-0.477c-0.384,0.315-0.438,0.877-0.577,1.355c-0.327,1.159-1.245,2.03-2.12,2.838 c-0.293,0.268-0.625,0.555-1.019,0.569c-0.395,0.015-0.804-0.421-0.619-0.772c0.126-0.241,0.47-0.377,0.44-0.649 c-0.044-0.34-0.624-0.322-0.734-0.648c0.239-0.956,1.323-1.341,2.156-1.845c1.01-0.608,1.811-1.578,2.213-2.707 c0.068-0.178,0.123-0.391,0.035-0.561c-0.121-0.244-0.439-0.286-0.71-0.289c-0.637-0.017-1.432,0.061-1.672,0.664 c-0.127,0.323-0.041,0.692-0.121,1.03c-0.235,1.005-1.591,1.101-2.425,1.692c-0.326,0.229-0.582,0.55-0.94,0.725 c-0.387,0.184-0.839,0.165-1.267,0.194c-0.076,0.004-0.152,0.013-0.229,0.022c-0.266,0.367-0.522,0.742-0.77,1.123 c-0.247,0.381-0.486,0.768-0.716,1.16c-1.086,1.843-1.984,3.814-2.673,5.889c-0.241,0.722-0.455,1.455-0.642,2.2 c-0.187,0.745-0.347,1.501-0.479,2.268c0.302-0.617,0.444-1.38,0.564-1.922C42.183,414.719,42.425,413.956,42.987,413.473z"/></g></g></g></g></g><g><path style="fill:#e0e0e0" d="M287.137,32.884l1.966,3.984c0.229,0.465,0.673,0.787,1.185,0.861l4.396,0.639 c1.291,0.188,1.807,1.775,0.872,2.685l-3.181,3.101c-0.371,0.362-0.54,0.883-0.453,1.393l0.751,4.379 c0.221,1.286-1.129,2.267-2.284,1.66l-3.932-2.067c-0.459-0.241-1.007-0.241-1.465,0l-3.932,2.067 c-1.155,0.607-2.505-0.374-2.284-1.66l0.751-4.379c0.088-0.511-0.082-1.032-0.453-1.393l-3.181-3.101 c-0.934-0.911-0.419-2.498,0.873-2.685l4.396-0.639c0.513-0.074,0.956-0.397,1.185-0.861l1.966-3.984 C284.891,31.714,286.56,31.714,287.137,32.884z"/></g><g><path style="fill:#e0e0e0" d="M109.591,27.504l0.983,1.992c0.115,0.232,0.336,0.393,0.593,0.431l2.198,0.319 c0.646,0.094,0.904,0.887,0.436,1.343l-1.591,1.55c-0.186,0.181-0.27,0.441-0.226,0.697l0.376,2.189 c0.11,0.643-0.565,1.133-1.142,0.83l-1.966-1.034c-0.229-0.121-0.503-0.121-0.733,0l-1.966,1.034 c-0.577,0.304-1.252-0.187-1.142-0.83l0.376-2.189c0.044-0.255-0.041-0.516-0.226-0.697l-1.591-1.55 c-0.467-0.455-0.209-1.249,0.436-1.343l2.198-0.319c0.256-0.037,0.478-0.198,0.593-0.431l0.983-1.992 C108.468,26.919,109.302,26.919,109.591,27.504z"/></g><g><path style="fill:#e0e0e0" d="M45.533,287.735l1.966,3.984c0.229,0.465,0.673,0.787,1.185,0.861l4.396,0.639 c1.291,0.188,1.807,1.775,0.872,2.685l-3.181,3.101c-0.371,0.362-0.54,0.883-0.453,1.393l0.751,4.378 c0.221,1.286-1.129,2.267-2.284,1.66l-3.932-2.067c-0.459-0.241-1.007-0.241-1.465,0l-3.932,2.067 c-1.155,0.607-2.505-0.374-2.284-1.66l0.751-4.378c0.088-0.511-0.082-1.032-0.453-1.393l-3.181-3.101 c-0.934-0.911-0.419-2.498,0.873-2.685l4.396-0.639c0.513-0.075,0.956-0.397,1.185-0.861l1.966-3.984 C43.287,286.565,44.956,286.565,45.533,287.735z"/></g><g><path style="fill:#e0e0e0" d="M305.596,436.23l1.439,2.915c0.168,0.34,0.492,0.576,0.867,0.63l3.217,0.467 c0.945,0.137,1.322,1.299,0.638,1.965l-2.328,2.269c-0.272,0.265-0.395,0.646-0.331,1.02l0.55,3.204 c0.161,0.941-0.827,1.659-1.672,1.215l-2.878-1.513c-0.336-0.176-0.737-0.176-1.072,0l-2.878,1.513 c-0.845,0.444-1.833-0.273-1.672-1.215l0.549-3.204c0.064-0.374-0.06-0.755-0.331-1.02l-2.328-2.269 c-0.684-0.667-0.306-1.828,0.639-1.965l3.217-0.467c0.375-0.055,0.7-0.29,0.867-0.63l1.439-2.915 C303.952,435.374,305.173,435.374,305.596,436.23z"/></g><g><path style="fill:#e0e0e0" d="M458.858,177.855l1.134,2.298c0.132,0.268,0.388,0.454,0.684,0.497l2.536,0.369 c0.745,0.108,1.043,1.024,0.503,1.549l-1.835,1.789c-0.214,0.209-0.312,0.509-0.261,0.804l0.433,2.526 c0.127,0.742-0.651,1.308-1.318,0.958l-2.269-1.193c-0.265-0.139-0.581-0.139-0.845,0l-2.269,1.193 c-0.666,0.35-1.445-0.216-1.318-0.958l0.433-2.526c0.051-0.295-0.047-0.595-0.261-0.804l-1.835-1.789 c-0.539-0.525-0.242-1.441,0.503-1.549l2.536-0.369c0.296-0.043,0.552-0.229,0.684-0.497l1.134-2.298 C457.562,177.18,458.525,177.18,458.858,177.855z"/></g><g><path style="fill:#e0e0e0" d="M352.186,39.008l1.134,2.298c0.132,0.268,0.388,0.454,0.684,0.497l2.536,0.369 c0.745,0.108,1.042,1.024,0.503,1.549l-1.835,1.789c-0.214,0.209-0.312,0.509-0.261,0.804l0.433,2.526 c0.127,0.742-0.652,1.308-1.318,0.958l-2.269-1.193c-0.265-0.139-0.581-0.139-0.845,0l-2.269,1.193 c-0.666,0.35-1.445-0.215-1.318-0.958l0.433-2.526c0.051-0.295-0.047-0.595-0.261-0.804l-1.835-1.789 c-0.539-0.526-0.242-1.441,0.503-1.549l2.536-0.369c0.296-0.043,0.552-0.229,0.684-0.497l1.134-2.298 C350.891,38.333,351.853,38.333,352.186,39.008z"/></g><g><path style="fill:#e0e0e0" d="M190.683,40.074l1.428,2.893c0.167,0.337,0.489,0.571,0.861,0.625l3.193,0.464 c0.938,0.136,1.312,1.289,0.634,1.95l-2.31,2.252c-0.27,0.263-0.393,0.641-0.329,1.012l0.545,3.18 c0.16,0.934-0.82,1.646-1.659,1.205l-2.856-1.501c-0.333-0.175-0.731-0.175-1.064,0l-2.856,1.501 c-0.839,0.441-1.819-0.271-1.659-1.205l0.545-3.18c0.064-0.371-0.059-0.749-0.329-1.012l-2.31-2.252 c-0.679-0.661-0.304-1.814,0.634-1.95l3.193-0.464c0.372-0.054,0.694-0.288,0.861-0.625l1.428-2.893 C189.051,39.224,190.263,39.224,190.683,40.074z"/></g><g><path style="fill:#e0e0e0" d="M455.558,297.876l2.108,4.272c0.246,0.498,0.721,0.843,1.271,0.923l4.714,0.685 c1.385,0.201,1.938,1.903,0.936,2.879l-3.411,3.325c-0.398,0.388-0.579,0.947-0.485,1.494l0.805,4.695 c0.236,1.379-1.211,2.431-2.449,1.78l-4.216-2.217c-0.492-0.258-1.079-0.258-1.571,0l-4.216,2.217 c-1.238,0.651-2.686-0.401-2.449-1.78l0.805-4.695c0.094-0.548-0.088-1.106-0.485-1.494l-3.411-3.325 c-1.002-0.977-0.449-2.678,0.936-2.879l4.714-0.685c0.55-0.08,1.025-0.425,1.271-0.923l2.108-4.272 C453.15,296.622,454.939,296.622,455.558,297.876z"/></g><g><path style="fill:#e0e0e0" d="M59.347,50.56l1.891,4.101c0.221,0.478,0.647,0.81,1.14,0.886l4.229,0.658 c1.242,0.193,1.738,1.827,0.839,2.764l-3.06,3.192c-0.357,0.372-0.52,0.909-0.436,1.434l0.722,4.507 c0.212,1.324-1.086,2.333-2.197,1.708l-3.783-2.128c-0.441-0.248-0.968-0.248-1.41,0l-3.783,2.128 c-1.111,0.625-2.41-0.384-2.197-1.708l0.722-4.507c0.084-0.526-0.079-1.062-0.436-1.434l-3.06-3.192 c-0.899-0.938-0.403-2.571,0.839-2.764l4.229-0.658c0.493-0.077,0.92-0.408,1.14-0.886l1.891-4.101 C57.187,49.356,58.792,49.356,59.347,50.56z"/></g><g><path style="fill:#e0e0e0" d="M236.671,357.699l1.134,2.298c0.132,0.268,0.388,0.454,0.684,0.497l2.536,0.369 c0.745,0.108,1.042,1.024,0.503,1.549l-1.835,1.789c-0.214,0.209-0.312,0.509-0.261,0.804l0.433,2.526 c0.127,0.742-0.652,1.308-1.318,0.957l-2.269-1.193c-0.265-0.139-0.581-0.139-0.845,0l-2.269,1.193 c-0.666,0.35-1.445-0.216-1.318-0.957l0.433-2.526c0.051-0.295-0.047-0.595-0.261-0.804l-1.835-1.789 c-0.539-0.526-0.242-1.441,0.503-1.549l2.536-0.369c0.296-0.043,0.552-0.229,0.684-0.497l1.134-2.298 C235.375,357.024,236.338,357.024,236.671,357.699z"/></g></g><g id="Background_Simple" style="display:none"><g style="display:inline"><path style="fill:#f5f5f5" d="M116.506,472.83l1.205-0.731c10.16-6.165,16.284-17.312,15.541-29.065 c-0.096-1.511-0.3-3.015-0.618-4.499c-2.287-10.686-10.368-19.983-20.717-23.837c-6.086-2.267-13.094-2.9-17.925-7.201 c-6.287-5.598-6.485-15.101-6.224-23.457c0.26-8.355,0.038-17.865-6.274-23.436c-3.953-3.489-9.575-4.598-14.869-4.316 c-14.016,0.745-26.549,10.512-32.778,22.933s-6.787,27.045-4.047,40.639c3.839,19.043,14.381,37.154,30.664,48.039 C76.748,478.784,98.932,481.539,116.506,472.83z"/></g><g style="display:inline"><path style="fill:#f5f5f5" d="M254.708,61.331l0.178,0.984c1.503,8.297,7.331,15.187,15.305,17.682 c1.025,0.321,2.074,0.567,3.138,0.734c7.66,1.2,15.873-1.79,21.056-7.667c3.048-3.456,5.249-7.938,9.326-10.045 c5.306-2.743,11.652-0.458,17.121,1.837c5.469,2.296,11.826,4.565,17.12,1.799c3.316-1.732,5.479-5.175,6.638-8.753 c3.068-9.475-0.217-20.259-6.863-27.542c-6.646-7.283-16.192-11.369-25.894-13.008c-13.591-2.296-28.268,0.086-39.617,8.107 C260.866,33.479,253.404,47.475,254.708,61.331z"/></g><g style="display:inline"><circle style="fill:#f5f5f5" cx="63.644" cy="292.026" r="19.523"/></g><g style="display:inline"><ellipse transform="matrix(0.2735 -0.9619 0.9619 0.2735 46.6105 647.7025)" style="fill:#f5f5f5" cx="452.074" cy="292.996" rx="19.523" ry="19.523"/></g><g style="display:inline"><ellipse transform="matrix(0.2214 -0.9752 0.9752 0.2214 -15.8012 114.2499)" style="fill:#f5f5f5" cx="63.644" cy="67.02" rx="19.523" ry="19.523"/></g><g style="display:inline"><ellipse transform="matrix(0.7071 -0.7071 0.7071 0.7071 -226.4067 339.6362)" style="fill:#f5f5f5" cx="296.774" cy="443.115" rx="19.523" ry="19.523"/></g></g><g id="Rocks"><g><g><g><path style="fill:#ae7461" d="M418.767,414.371c0,0,5.649,10.759,1.376,26.695c-4.273,15.936-5.987,25.881-15.485,28.301 c-9.497,2.42-26.325,4.098-26.325,4.098l-4.497-27.347L418.767,414.371z"/></g></g><g style="opacity:.3"><g><path d="M418.767,414.371c0,0,5.649,10.759,1.376,26.695c-4.273,15.936-5.987,25.881-15.485,28.301 c-9.497,2.42-26.325,4.098-26.325,4.098l-4.497-27.347L418.767,414.371z"/></g></g><g><g><path style="fill:#ae7461" d="M353.705,428.097c0,0,15.408,16.808,19.351,19.1l2.408,2.473 c2.698-1.477,31.35-14.555,32.521-17.26c1.172-2.706-0.123-5.006-0.123-5.006l4.773,0.948l6.132-13.983l-33.407,8.634 c0,0,3.164-3.618,0.84-4.482C383.876,417.658,353.705,428.097,353.705,428.097z"/></g></g><g><g><path style="fill:#6f4439" d="M378.333,473.465c0,0-6.39-6.586-12.47-18.812c-6.079-12.226-12.159-26.556-12.159-26.556 l21.758,21.574L378.333,473.465z"/></g></g><g style="opacity:.3"><g><path d="M407.985,432.411l3.571,15.349l1.079-19.406l-4.773-0.948C407.862,427.405,409.016,430.407,407.985,432.411z"/></g></g></g><g><g><polygon style="fill:#ae7461" points="115.984 390.343 114.747 368.308 277.207 395.32 275.315 413.527 254.011 430.948 237.227 451.693 202.883 459.297 146.252 437.748 135.76 418.429"/></g><g style="opacity:.5"><polygon style="fill:#6f4439" points="210.951 431.991 200.695 391.191 277.207 395.32 275.315 413.527 254.011 430.948 237.227 451.693 202.883 459.297"/></g><g><polyline style="fill:#6f4439" points="114.747 368.308 200.695 391.191 210.951 431.991 202.883 459.297 177.164 449.51 146.252 437.748 115.984 390.343 114.747 370.787"/></g><g><path style="fill:#6f4439" d="M205.206,422.699c0.047,0.188,27.018-9.21,27.018-9.21l-30.244,1.583L205.206,422.699z"/></g><g style="opacity:.1"><polygon points="115.688 384.902 210.087 428.551 245.603 430.417 275.315 413.527 255.816 429.472 254.011 430.948 249.218 436.872 240.045 433.788 208.969 438.701 192.269 425.119 144.345 404.89 121.708 398.869 115.984 390.343"/></g><g style="opacity:.1"><polygon points="137.025 423.296 168.7 432.22 205.27 451.219 237.227 451.693 204.202 454.835 167.703 436.957 142.636 432.084"/></g></g></g><g id="Stars"><g><path style="fill:#ff725e" d="M448.565,370.001l1.966,3.984c0.229,0.465,0.673,0.787,1.185,0.861l4.396,0.639 c1.291,0.188,1.807,1.775,0.873,2.685l-3.181,3.101c-0.371,0.362-0.54,0.883-0.453,1.393l0.751,4.379 c0.221,1.286-1.129,2.267-2.284,1.66l-3.932-2.067c-0.459-0.241-1.007-0.241-1.465,0l-3.932,2.067 c-1.155,0.607-2.505-0.374-2.284-1.66l0.751-4.379c0.088-0.511-0.082-1.032-0.453-1.393l-3.181-3.101 c-0.934-0.911-0.419-2.498,0.873-2.685l4.396-0.639c0.513-0.075,0.956-0.397,1.185-0.861l1.966-3.984 C446.319,368.831,447.988,368.831,448.565,370.001z"/></g><g><path style="fill:#ff725e" d="M205.974,176.722l0.905,1.834c0.106,0.214,0.31,0.362,0.546,0.397l2.024,0.294 c0.595,0.087,0.832,0.817,0.402,1.237l-1.465,1.428c-0.171,0.167-0.249,0.406-0.208,0.642l0.346,2.016 c0.102,0.592-0.52,1.044-1.052,0.764l-1.811-0.952c-0.211-0.111-0.464-0.111-0.675,0l-1.811,0.952 c-0.532,0.28-1.153-0.172-1.052-0.764l0.346-2.016c0.04-0.235-0.038-0.475-0.209-0.642l-1.465-1.428 c-0.43-0.419-0.193-1.15,0.402-1.237l2.024-0.294c0.236-0.034,0.44-0.183,0.546-0.397l0.905-1.834 C204.94,176.183,205.708,176.183,205.974,176.722z"/></g><g><path style="fill:#ff725e" d="M91.111,335.138l1.333,2.7c0.155,0.315,0.456,0.533,0.803,0.584l2.98,0.433 c0.875,0.127,1.225,1.203,0.591,1.82l-2.156,2.102c-0.252,0.245-0.366,0.598-0.307,0.945l0.509,2.967 c0.15,0.872-0.765,1.536-1.548,1.125l-2.665-1.401c-0.311-0.163-0.682-0.163-0.993,0l-2.665,1.401 c-0.783,0.412-1.698-0.253-1.548-1.125l0.509-2.967c0.059-0.346-0.055-0.699-0.307-0.945l-2.156-2.102 c-0.633-0.617-0.284-1.693,0.591-1.82l2.98-0.433c0.348-0.051,0.648-0.269,0.803-0.584l1.333-2.7 C89.588,334.345,90.719,334.345,91.111,335.138z"/></g><g><path style="fill:#ff725e" d="M336.175,391.831l0.905,1.834c0.106,0.214,0.31,0.362,0.546,0.397l2.024,0.294 c0.595,0.086,0.832,0.817,0.402,1.237l-1.465,1.428c-0.171,0.167-0.249,0.406-0.208,0.642l0.346,2.016 c0.102,0.592-0.52,1.044-1.052,0.764l-1.811-0.952c-0.211-0.111-0.463-0.111-0.675,0l-1.811,0.952 c-0.532,0.28-1.154-0.172-1.052-0.764l0.346-2.016c0.04-0.235-0.038-0.475-0.209-0.642l-1.465-1.428 c-0.43-0.419-0.193-1.15,0.402-1.237l2.024-0.294c0.236-0.034,0.44-0.183,0.546-0.397l0.905-1.834 C335.141,391.292,335.909,391.292,336.175,391.831z"/></g><g><path style="fill:#ff725e" d="M447.804,116.014l0.905,1.834c0.106,0.214,0.31,0.362,0.546,0.397l2.024,0.294 c0.595,0.086,0.832,0.817,0.402,1.236l-1.465,1.428c-0.171,0.166-0.249,0.407-0.209,0.642l0.346,2.016 c0.102,0.592-0.52,1.044-1.052,0.764l-1.811-0.952c-0.211-0.111-0.463-0.111-0.675,0l-1.811,0.952 c-0.532,0.28-1.154-0.172-1.052-0.764l0.346-2.016c0.04-0.235-0.038-0.475-0.208-0.642l-1.465-1.428 c-0.43-0.419-0.193-1.15,0.402-1.236l2.024-0.294c0.236-0.034,0.44-0.183,0.546-0.397l0.905-1.834 C446.769,115.475,447.538,115.475,447.804,116.014z"/></g><g><path style="fill:#ff725e" d="M72.402,216.19l1.966,3.984c0.229,0.465,0.673,0.787,1.185,0.861l4.396,0.639 c1.291,0.188,1.807,1.774,0.872,2.685l-3.181,3.101c-0.371,0.362-0.54,0.883-0.453,1.393l0.751,4.379 c0.221,1.286-1.129,2.267-2.284,1.66l-3.932-2.067c-0.459-0.241-1.007-0.241-1.465,0l-3.932,2.067 c-1.155,0.607-2.505-0.374-2.284-1.66l0.751-4.379c0.088-0.511-0.082-1.032-0.453-1.393l-3.181-3.101 c-0.934-0.911-0.419-2.498,0.872-2.685l4.396-0.639c0.513-0.075,0.956-0.396,1.185-0.861l1.966-3.984 C70.156,215.02,71.825,215.02,72.402,216.19z"/></g><g><path style="fill:#ff725e" d="M44.771,153.829l0.905,1.834c0.106,0.214,0.31,0.362,0.546,0.397l2.024,0.294 c0.595,0.086,0.832,0.817,0.402,1.237l-1.465,1.428c-0.171,0.166-0.249,0.406-0.208,0.642l0.346,2.016 c0.101,0.592-0.52,1.044-1.052,0.764l-1.811-0.952c-0.211-0.111-0.464-0.111-0.675,0l-1.811,0.952 c-0.532,0.28-1.153-0.172-1.052-0.764l0.346-2.016c0.04-0.235-0.038-0.475-0.209-0.642l-1.465-1.428 c-0.43-0.419-0.193-1.15,0.402-1.237l2.024-0.294c0.236-0.034,0.44-0.183,0.546-0.397l0.905-1.834 C43.737,153.29,44.506,153.29,44.771,153.829z"/></g><g><path style="fill:#ff725e" d="M224.959,74.96l1.689,3.421c0.197,0.399,0.578,0.676,1.018,0.74l3.776,0.549 c1.109,0.161,1.552,1.524,0.749,2.306l-2.732,2.663c-0.319,0.311-0.464,0.758-0.389,1.197l0.645,3.76 c0.189,1.105-0.97,1.947-1.962,1.425l-3.377-1.775c-0.394-0.207-0.865-0.207-1.258,0l-3.377,1.775 c-0.992,0.521-2.151-0.321-1.962-1.425l0.645-3.76c0.075-0.439-0.07-0.886-0.389-1.197l-2.732-2.663 c-0.803-0.782-0.36-2.145,0.749-2.306l3.775-0.549c0.44-0.064,0.821-0.341,1.018-0.74l1.689-3.421 C223.03,73.955,224.463,73.955,224.959,74.96z"/></g></g><g id="Planet_2"><g><g><g><g><path style="fill:#ff725e" d="M447.138,65.216c-0.288,11.554-9.888,20.688-21.442,20.4 c-11.554-0.288-20.688-9.888-20.4-21.442s9.888-20.687,21.442-20.4C438.293,44.062,447.426,53.662,447.138,65.216z"/></g></g></g><g><g style="opacity:.13"><g><g><path style="fill:#fff" d="M447.148,64.943c0.003-0.145,0.004-0.294,0.001-0.439l0.002-0.067 c-0.003-0.152-0.006-0.304-0.012-0.456c-0.006-0.159-0.012-0.318-0.022-0.473c-0.012-0.2-0.024-0.399-0.043-0.599 c-0.039-0.481-0.098-0.958-0.174-1.43c-2.782-0.177-6.706-0.255-10.468,0.266c-6.891,0.953-10.534,4.818-18.428,5.206 c-7.891,0.391-9.972-4.211-7.846-5.86c2.122-1.65,12.06-2.726,22.19-2.585c6.909,0.095,11.701,0.427,14.054,0.627 c-0.17-0.626-0.371-1.242-0.599-1.846c-0.057-0.147-0.114-0.297-0.175-0.444c-0.038-0.096-0.076-0.191-0.118-0.287 c-0.009-0.024-0.022-0.051-0.032-0.075c-0.089-0.215-0.185-0.43-0.285-0.639c-0.042-0.089-0.083-0.181-0.128-0.27 c-0.045-0.096-0.093-0.191-0.138-0.287c-3.873,0.758-11.54,1.935-21.044,1.729c-8.042-0.173-13.597-0.528-16.843-0.795 c-0.193,0.431-0.373,0.876-0.533,1.324c-0.09,0.241-0.174,0.486-0.255,0.73c-0.026,0.087-0.055,0.174-0.081,0.262 c-0.018,0.054-0.033,0.111-0.052,0.168v0.003c-0.092,0.322-0.182,0.644-0.261,0.973c-0.034,0.121-0.064,0.245-0.09,0.369 l0,0.003c-0.049,0.212-0.092,0.423-0.134,0.639c-0.015,0.081-0.031,0.158-0.043,0.239c-0.039,0.195-0.071,0.394-0.099,0.592 l0,0.003c-0.032,0.202-0.061,0.404-0.083,0.606c-0.021,0.145-0.038,0.293-0.051,0.441c-0.036,0.35-0.062,0.704-0.077,1.059 c-0.005,0.061-0.01,0.118-0.011,0.179c-0.006,0.121-0.009,0.243-0.012,0.364c-0.005,0.213-0.007,0.425-0.006,0.635 c0.001,0.111,0.001,0.223,0.009,0.331c-0.002,0.088-0.001,0.176,0.004,0.263c0.01,0.288,0.023,0.572,0.046,0.853 c0.017,0.247,0.038,0.494,0.066,0.738c0.173,1.602,0.53,3.148,1.043,4.624c5.348-0.576,19.238-2.041,25.773-2.405 c4.841-0.271,10.575,0.328,14.265,0.832c0.164-0.604,0.294-1.222,0.401-1.848c0.012-0.071,0.024-0.145,0.032-0.219 c0.015-0.071,0.024-0.141,0.036-0.212c0.02-0.135,0.037-0.273,0.054-0.411c0.017-0.121,0.03-0.246,0.043-0.37 c0.009-0.084,0.018-0.168,0.026-0.253c0.018-0.185,0.033-0.367,0.048-0.553c0.01-0.152,0.021-0.304,0.028-0.459 c0.008-0.179,0.016-0.361,0.02-0.543C447.147,65.098,447.149,65.021,447.148,64.943z M409.632,57.323 c0.561,0.014,0.998,0.478,0.984,1.035c-0.014,0.557-0.474,0.998-1.035,0.984c-0.557-0.014-0.995-0.477-0.981-1.035 C408.615,57.75,409.075,57.309,409.632,57.323z M409.028,69.121c-0.733-0.018-1.309-0.627-1.29-1.356 c0.018-0.729,0.624-1.309,1.356-1.29c0.729,0.018,1.305,0.627,1.287,1.356C410.362,68.56,409.757,69.139,409.028,69.121z M433.427,65.885c-0.56-0.014-0.998-0.478-0.984-1.035c0.014-0.557,0.474-0.998,1.035-0.984 c0.557,0.014,0.995,0.477,0.981,1.034C434.444,65.457,433.984,65.899,433.427,65.885z M435.475,68.395 c-0.277-0.007-0.497-0.239-0.491-0.516c0.007-0.28,0.239-0.501,0.516-0.494c0.28,0.007,0.501,0.239,0.494,0.519 C435.987,68.182,435.756,68.402,435.475,68.395z"/></g></g></g><g style="opacity:.25"><g><g><g><path style="fill:#fff" d="M426.353,75.359c-8.749-0.258-15.944-1.346-19.193-1.914c0.019,0.044,0.042,0.085,0.061,0.13 c0.025,0.061,0.054,0.12,0.087,0.178c0.01,0.017,0.016,0.038,0.026,0.055c0.032,0.068,0.064,0.133,0.1,0.198 c0.071,0.15,0.151,0.301,0.229,0.452c0.261,0.496,0.543,0.98,0.842,1.45c0.016,0.024,0.033,0.051,0.049,0.076 c0.28,0.436,0.573,0.859,0.884,1.272c0.052,0.076,0.111,0.151,0.167,0.224c0.576,0.741,1.197,1.445,1.863,2.104 c0.686,0.679,1.42,1.312,2.196,1.896c0.003,0,0.007,0,0.007,0c0.116,0.094,0.235,0.182,0.355,0.269 c0.01,0.007,0.02,0.014,0.03,0.021c0.252,0.179,0.508,0.354,0.767,0.516c0.07,0.049,0.136,0.091,0.206,0.133l0.003,0 c0.027,0.018,0.05,0.032,0.076,0.049c0.05,0.035,0.1,0.067,0.153,0.095c0.183,0.116,0.369,0.225,0.559,0.331 c0.356,0.205,0.72,0.4,1.087,0.581c4.497-0.175,8.474-0.225,9.582,0.056c1.279,0.326-1.44,0.978-4.888,1.608 c1.314,0.293,2.677,0.465,4.078,0.5c1.968,0.049,3.879-0.174,5.698-0.638c0.156-0.04,0.316-0.08,0.473-0.127 c0.194-0.053,0.388-0.112,0.582-0.171c0.225-0.069,0.449-0.144,0.674-0.223c1.199-0.419,2.348-0.945,3.437-1.566l0.003,0 c0.867-0.492,1.695-1.046,2.48-1.651c0.134-0.105,0.269-0.213,0.403-0.324c-1.104,0.091-2.684,0.207-4.948,0.353 c-6.824,0.441-18.057-0.609-17.756-1.432c0.301-0.827,7.032-1.977,15.408-1.521c3.92,0.216,7.124,0.434,9.423,0.61 c0.25-0.271,0.493-0.549,0.733-0.83c0.547-0.655,1.054-1.345,1.521-2.067c0.112-0.173,0.221-0.349,0.331-0.529 c0.141-0.236,0.279-0.473,0.413-0.716c0.226-0.406,0.436-0.823,0.632-1.248c0.011-0.02,0.018-0.04,0.025-0.06 C441.821,74.292,434.809,75.607,426.353,75.359z M414.661,77.841c-1.958-0.049-3.537-0.541-3.523-1.098 c0.014-0.557,1.615-0.97,3.573-0.921c1.958,0.049,3.537,0.541,3.523,1.098C418.22,77.478,416.619,77.89,414.661,77.841z"/></g></g></g></g><g style="opacity:.13"><g><g><path style="fill:#fff" d="M441.643,50.541c-3.082,0.855-8.456,1.954-15.132,1.69c-6.436-0.255-12.341-0.922-16.007-1.409 c0.671-0.76,1.395-1.468,2.171-2.121c3.498,0.891,7.624,1.774,10.97,1.986c7.309,0.462,14.842-1.319,13.567-2.206 c-1.271-0.89-6.814,0.178-13.726-0.342c-3.119-0.236-6.127-0.703-8.491-1.144c1.043-0.667,2.156-1.24,3.313-1.711 c0.014-0.006,0.027-0.009,0.041-0.016c0.024-0.009,0.044-0.019,0.068-0.025c2.654,0.458,6.219,0.817,10.864,0.815 c2.712,0,4.804-0.019,6.419-0.043c0.207,0.103,0.41,0.209,0.613,0.323c0.003,0.003,0.007,0.007,0.01,0.007 c0.333,0.187,0.663,0.378,0.985,0.585c0.01,0.004,0.02,0.011,0.03,0.021c0.572,0.355,1.127,0.744,1.66,1.156 c0,0,0.003,0,0.003,0.003c0.083,0.063,0.162,0.126,0.245,0.192l0.003,0c0.046,0.038,0.089,0.073,0.136,0.112 c0.166,0.136,0.331,0.272,0.493,0.414c0.089,0.077,0.175,0.153,0.261,0.229c0.063,0.056,0.122,0.111,0.182,0.167 c0.403,0.365,0.789,0.746,1.161,1.144l0.007,0.007c0.049,0.052,0.092,0.097,0.141,0.152L441.643,50.541z"/></g></g></g><g style="opacity:.4"><g><g><path style="fill:#fff" d="M447.149,64.91c0.004-0.145,0.004-0.294,0.004-0.439c0.001-0.024,0.001-0.044-0.002-0.068 l0.001-0.04c-0.003-0.152-0.006-0.304-0.012-0.456c-0.003-0.145-0.01-0.291-0.02-0.433c-0.012-0.216-0.027-0.426-0.045-0.64 c-0.044-0.531-0.109-1.057-0.197-1.576c-0.008-0.071-0.023-0.146-0.035-0.217c-0.012-0.068-0.024-0.136-0.035-0.204 c-0.033-0.187-0.068-0.373-0.108-0.557c-0.22-1.053-0.523-2.077-0.896-3.069c-0.089-0.235-0.181-0.467-0.276-0.696 c-0.14-0.331-0.288-0.659-0.442-0.98c-0.122-0.256-0.251-0.506-0.383-0.756c-0.155-0.291-0.316-0.579-0.489-0.86 c-0.061-0.113-0.129-0.223-0.198-0.333c0,0,0-0.003-0.003-0.004c-0.049-0.082-0.101-0.161-0.153-0.244 c-0.026-0.038-0.049-0.076-0.078-0.113c-0.101-0.161-0.208-0.319-0.316-0.474c-0.036-0.055-0.072-0.106-0.111-0.161 c-0.026-0.038-0.056-0.076-0.082-0.114c-0.052-0.072-0.101-0.144-0.157-0.213c-0.212-0.296-0.438-0.589-0.667-0.868 l-0.033-0.041c-0.193-0.238-0.394-0.469-0.598-0.694c-0.062-0.069-0.125-0.138-0.187-0.207 c-0.049-0.055-0.092-0.1-0.141-0.152l-0.007-0.007c-0.372-0.398-0.757-0.779-1.161-1.144c-0.06-0.056-0.119-0.111-0.182-0.167 c-0.086-0.076-0.172-0.153-0.261-0.229c-0.162-0.142-0.328-0.278-0.493-0.414c-0.046-0.038-0.089-0.073-0.136-0.111l-0.003,0 c-0.083-0.066-0.162-0.129-0.245-0.192c0-0.003-0.003-0.003-0.003-0.003c-0.663-0.513-1.361-0.986-2.086-1.42 c0.133,0.091,0.266,0.186,0.395,0.284c0.01,0.004,0.02,0.011,0.03,0.021c0.139,0.101,0.279,0.203,0.415,0.311 c0,0,0.003,0,0.003,0.003c0.083,0.063,0.162,0.126,0.245,0.192h0.003c0.046,0.038,0.089,0.073,0.136,0.111 c0.165,0.136,0.331,0.272,0.493,0.414c0.089,0.076,0.175,0.153,0.261,0.229c0.063,0.056,0.122,0.111,0.181,0.167 c0.403,0.365,0.789,0.746,1.161,1.144l0.006,0.007c0.049,0.052,0.092,0.097,0.141,0.152c0.27,0.294,0.533,0.591,0.785,0.901 l0.033,0.041c0.03,0.035,0.059,0.072,0.085,0.107c0.256,0.317,0.504,0.644,0.739,0.974c0.026,0.038,0.056,0.076,0.082,0.114 c0.039,0.055,0.075,0.106,0.111,0.161c0.075,0.11,0.15,0.22,0.221,0.33c0.059,0.086,0.117,0.172,0.173,0.258 c0.052,0.082,0.104,0.161,0.153,0.244c0.004,0,0.003,0.003,0.003,0.003c0.104,0.168,0.204,0.336,0.301,0.508 c0.13,0.219,0.256,0.442,0.375,0.668c0.161,0.298,0.313,0.599,0.457,0.907c0.131,0.277,0.253,0.554,0.371,0.837 c0.099,0.232,0.194,0.468,0.283,0.706c0.044,0.119,0.089,0.239,0.133,0.361c0.376,1.053,0.67,2.141,0.871,3.265 c0.012,0.068,0.024,0.136,0.035,0.204c0.012,0.058,0.021,0.115,0.03,0.173c0.059,0.343,0.108,0.685,0.143,1.034 c0.025,0.193,0.044,0.39,0.06,0.586c0.032,0.356,0.053,0.711,0.065,1.072c0.006,0.149,0.01,0.294,0.013,0.443l0,0.014 c0.002,0.182,0.001,0.365-0.004,0.547c0.002,0.078,0,0.155-0.002,0.233c-0.002,0.064-0.003,0.128-0.008,0.189 c-0.003,0.118-0.006,0.236-0.012,0.354c-0.021,0.432-0.055,0.86-0.106,1.281c-0.026,0.243-0.056,0.485-0.092,0.724 c-0.008,0.047-0.013,0.094-0.024,0.141c-0.061,0.404-0.132,0.804-0.216,1.197c-0.026,0.114-0.053,0.232-0.08,0.346 c-0.435,1.888-1.129,3.674-2.034,5.324c-0.007,0.01-0.011,0.023-0.018,0.033c-0.134,0.243-0.272,0.48-0.413,0.716 c-0.391,0.646-0.812,1.267-1.269,1.86c-0.457,0.604-0.945,1.176-1.462,1.724c-0.316,0.33-0.641,0.653-0.977,0.965l-0.003,0 c-0.702,0.651-1.45,1.251-2.234,1.802h-0.003c-1.19,0.832-2.464,1.54-3.813,2.114l-0.003,0 c-0.417,0.179-0.843,0.34-1.272,0.492c-0.225,0.079-0.45,0.154-0.674,0.223c-0.347,0.11-0.701,0.209-1.055,0.298 c-0.751,0.191-1.522,0.344-2.301,0.446c-1.109,0.155-2.242,0.221-3.396,0.192c-2.299-0.057-4.501-0.484-6.553-1.221 c-0.442-0.156-0.877-0.329-1.305-0.519c-0.344-0.147-0.685-0.308-1.018-0.475c-0.334-0.17-0.66-0.347-0.983-0.531 c-0.143-0.081-0.283-0.166-0.423-0.25c0.222,0.154,0.445,0.305,0.671,0.446c0.096,0.067,0.19,0.123,0.286,0.183 c0.02,0.014,0.037,0.025,0.057,0.035c0.03,0.024,0.063,0.042,0.096,0.06c0.183,0.116,0.369,0.226,0.559,0.332 c0.646,0.371,1.313,0.708,2.002,1.006c0.428,0.19,0.862,0.363,1.305,0.519c2.052,0.737,4.254,1.163,6.553,1.221 c1.968,0.049,3.879-0.174,5.698-0.638c0.116-0.027,0.231-0.058,0.347-0.093c0.238-0.062,0.473-0.13,0.708-0.205 c0.225-0.069,0.449-0.144,0.674-0.223c1.169-0.407,2.293-0.916,3.358-1.517c0.881-0.495,1.722-1.052,2.518-1.667 c0.858-0.661,1.666-1.387,2.412-2.173c0.295-0.314,0.583-0.634,0.858-0.962c0.55-0.655,1.06-1.342,1.528-2.063 c0.123-0.19,0.246-0.382,0.362-0.575c0.141-0.236,0.279-0.473,0.413-0.716c0.216-0.393,0.422-0.793,0.611-1.201h0.003 c0.788-1.676,1.36-3.476,1.681-5.366c0.012-0.071,0.024-0.145,0.036-0.219c0.016-0.084,0.028-0.172,0.04-0.256 c0.02-0.125,0.037-0.246,0.053-0.37c0.013-0.121,0.026-0.246,0.04-0.37c0.012-0.084,0.021-0.168,0.03-0.253 c0.018-0.185,0.033-0.367,0.048-0.553c0.011-0.152,0.021-0.304,0.028-0.459c0.008-0.179,0.016-0.361,0.02-0.543 C447.148,65.066,447.15,64.988,447.149,64.91z"/></g></g></g></g><g><g><g><g><path style="fill:#fff" d="M424.549,44.208c0,0-0.001,0-0.004,0h0c-0.002,0.009-0.141,0.032-0.405,0.066 c-0.264,0.031-0.651,0.091-1.148,0.174c-0.991,0.18-2.426,0.496-4.117,1.165c-1.686,0.667-3.626,1.699-5.506,3.244 c-1.871,1.542-3.686,3.597-5.032,6.114l-0.013-0.15l0.002,0.003l0.054,0.069l-0.043,0.085 c-0.224,0.438-0.454,0.888-0.687,1.346c-0.221,0.463-0.392,0.959-0.594,1.444c-0.52,1.516-0.919,3.048-1.035,4.563 l-0.064,0.562l-0.018,0.561c-0.011,0.372-0.021,0.74-0.032,1.105c0.018,0.364,0.035,0.725,0.053,1.081 c0.009,0.178,0.018,0.355,0.027,0.532c0.022,0.175,0.045,0.349,0.067,0.522c0.325,2.773,1.147,5.187,2.081,7.077 c0.938,1.896,1.963,3.28,2.698,4.205c0.373,0.459,0.696,0.787,0.897,1.027c0.206,0.235,0.311,0.362,0.304,0.368 c-0.007,0.007-0.125-0.107-0.344-0.329c-0.214-0.227-0.552-0.545-0.94-0.995c-0.765-0.908-1.823-2.284-2.792-4.186 c-0.965-1.896-1.817-4.33-2.16-7.135c-0.023-0.175-0.047-0.351-0.07-0.528c-0.01-0.178-0.02-0.358-0.03-0.538 c-0.019-0.361-0.038-0.726-0.058-1.095c0.009-0.37,0.019-0.743,0.028-1.12l0.017-0.568l0.063-0.57 c0.115-1.536,0.517-3.092,1.045-4.631c0.205-0.493,0.379-0.996,0.604-1.466c0.238-0.464,0.472-0.921,0.699-1.366l0.011,0.154 l-0.002-0.002l-0.056-0.071l0.043-0.079c1.371-2.552,3.216-4.625,5.121-6.174c1.912-1.551,3.884-2.576,5.595-3.226 c1.715-0.651,3.167-0.942,4.168-1.092c0.502-0.068,0.893-0.112,1.159-0.126c0.266-0.018,0.406-0.023,0.41-0.015h0 C424.55,44.208,424.549,44.208,424.549,44.208z"/></g></g></g></g></g></g><g id="Planet_1"><g><g><g><g><g><ellipse transform="matrix(0.9995 -0.0309 0.0309 0.9995 -3.509 4.0617)" style="fill:#455a64" cx="129.804" cy="115.69" rx="61.997" ry="61.997"/></g></g></g><g style="opacity:.3"><g><g><path d="M71.227,94.892c1.214,0.257,2.29,0.499,3.087,0.629c-0.799,3.038-1.559,6.436-0.034,9.183 c1.54,2.775,4.872,3.919,7.354,5.898c0.738,0.588,1.455,1.363,1.472,2.306c0.014,0.784-0.462,1.484-0.932,2.111 c-2.757,3.678-6.229,7.79-5.158,12.26c0.621,2.594,2.763,5.046,1.968,7.592c-0.84,2.687-4.291,3.328-7.135,2.962 C66.439,123.851,66.403,108.602,71.227,94.892z"/></g></g></g><g style="opacity:.3"><g><g><path d="M89.266,130.626c-0.039,0.139-0.149,0.246-0.261,0.338c-4.841,3.942-10.416-7.199-7.73-11.08 c1.662-2.402,4.766-1.706,6.195,0.561c1.807,2.868,0.447,6.577,1.692,9.623C89.236,130.246,89.319,130.44,89.266,130.626z"/></g></g></g><g style="opacity:.3"><g><g><path d="M90.674,148.204c-0.093,0.821-0.982,1.294-1.788,1.477c-2.782,0.632-5.897-0.668-7.405-3.089 c-2.604-4.183,0.199-11.37,5.849-9.929c2.023,0.516,3.656,2.521,3.452,4.6c-0.112,1.14-0.72,2.195-0.775,3.338 c-0.045,0.935,0.282,1.842,0.542,2.741C90.631,147.623,90.707,147.913,90.674,148.204z"/></g></g></g><g style="opacity:.3"><g><g><path d="M106.934,155.612c-0.308,0.783-1.352,1.214-1.378,2.055c-0.023,0.728,0.777,1.376,0.547,2.067 c-0.207,0.621-1.05,0.704-1.695,0.596c-2.079-0.352-4.005-1.54-5.251-3.241c-0.219-0.299-0.422-0.623-0.493-0.986 c-0.207-1.054,0.452-2.583,0.452-2.583c0.505-1.02,1.703-1.56,2.841-1.56c1.138,0,2.228,0.452,3.235,0.982 C106.226,153.486,107.362,154.525,106.934,155.612z"/></g></g></g><g style="opacity:.3"><g><g><path d="M101.762,145.097c-1.006-4.101,3.774-7.497,7.21-8.205c2.69-0.554,9.241,1.126,6.699,5.268 c-0.852,1.389-2.349,2.363-3.964,2.579c-1.137,0.152-2.351-0.041-3.392,0.443c-0.082,0.038-0.162,0.08-0.24,0.125 c-1.005,0.581-1.703,1.689-2.814,2.042C103.778,147.819,102.132,146.608,101.762,145.097z"/></g></g></g><g style="opacity:.3"><g><g><path d="M111.529,148.735c0.504,0.217,0.996,0.579,1.137,1.109c0.112,0.421-0.022,0.877-0.262,1.241 c-0.714,1.083-2.417,1.333-3.412,0.5c-0.822-0.689-0.991-1.978-0.497-2.911C109.471,148.32,110.575,148.325,111.529,148.735z"/></g></g></g><g style="opacity:.3"><g><g><path d="M108.885,148.138c-0.163,0.155-0.286,0.341-0.389,0.536c-0.104,0.038-0.213,0.059-0.313,0.105L108.885,148.138z"/></g></g></g><g style="opacity:.3"><g><g><path d="M88.396,157.669c1.439-0.008,2.971,0.268,4.023,1.248c0.863,0.804,1.288,1.971,2.03,2.888 c2.433,3.01,7.799,2.909,9.378,6.443c0.519,1.161,0.479,2.463,0.248,3.734c-7.083-3.204-13.623-7.774-19.201-13.623 C85.97,157.875,87.191,157.676,88.396,157.669z"/></g></g></g><g style="opacity:.3"><g><g><path d="M126.495,177.419c-5.683-0.297-11.307-1.358-16.7-3.18c-1.207-4.056-2.276-7.671,0.463-11.783 c1.493-2.193,4.255-3.755,6.803-3.019c1.274,0.367,2.329,1.242,3.344,2.095c1.092,0.918,2.185,1.836,3.278,2.754 c0.439,0.369,0.894,0.759,1.106,1.291c0.653,1.637-1.252,3.101-1.802,4.774c-0.412,1.251-0.02,2.647,0.677,3.765 c0.697,1.118,1.674,2.026,2.566,2.996C126.321,177.208,126.407,177.316,126.495,177.419z"/></g></g></g><g style="opacity:.3"><g><g><path d="M129.639,157.765c-0.856-0.043-1.609-0.554-2.422-0.824c-1.141-0.379-2.379-0.276-3.571-0.425 s-2.479-0.669-2.944-1.778c-0.144-0.342-0.193-0.747-0.032-1.082c0.174-0.362,0.554-0.574,0.92-0.74 c2.184-0.99,4.642-1.141,7.036-1.277l-0.899,0.246c0.858-0.134,1.742-0.071,2.525,0.297c1.189,0.558,2.065,1.829,1.975,3.14 C132.136,156.632,130.952,157.83,129.639,157.765z"/></g></g></g><g style="opacity:.3"><g><g><path d="M103.323,74.719c-0.379,0.207-0.786,0.404-1.045,0.751c-0.748,0.997,0.148,2.4,0.034,3.641 c-0.118,1.278-1.371,2.226-2.644,2.388c-6.331,0.804-6.416-8.001-2.631-11.056C100.87,67.351,110.823,70.619,103.323,74.719z"/></g></g></g><g style="opacity:.3"><g><g><path d="M127.85,94.026c-2.071-0.264-4.112-0.768-6.068-1.498c-1.571-0.587-3.157-1.377-4.123-2.748 c-1.642-2.33-1.005-5.537,0.001-8.204c0.866-2.295,2.044-4.61,4.075-5.986c1.319-0.894,2.891-1.319,4.36-1.937 c2.44-1.026,4.617-2.601,7.042-3.663c1.689-0.739,3.596-1.195,5.401-1.015c4.876-0.702,9.99,0.251,14.239,2.753 c1.839,1.083,3.616,2.586,4.149,4.652c0.988,3.836-2.664,7.547-2.267,11.488c0.349,3.456,3.753,6.286,3.31,9.731 c-0.429,3.341-4.147,5.085-7.398,5.968c-4.571,1.241-10.107,1.75-13.431-1.624c-2.214-2.247-3.06-5.912-5.931-7.218 C130.162,94.25,128.989,94.171,127.85,94.026z"/></g></g></g><g style="opacity:.3"><g><g><path d="M133.306,63.568c-1.501,0.953-3.003,1.906-4.504,2.859c-0.431,0.273-0.882,0.554-1.389,0.609 c-1.171,0.127-2.173-1.12-2.075-2.293c0.098-1.174,1.028-2.146,2.098-2.637c1.07-0.491,2.273-0.589,3.447-0.681l-1.614,0.455 C130.784,61.608,132.461,62.269,133.306,63.568z"/></g></g></g><g style="opacity:.3"><g><g><path d="M145.867,62.929c0.734,0.607,0.949,1.917,0.167,2.462c-0.431,0.3-1.001,0.277-1.526,0.241 c-1.351-0.093-2.702-0.186-4.053-0.278c-0.427-0.03-0.889-0.074-1.203-0.365c-0.415-0.386-0.389-1.094-0.062-1.557 c0.327-0.464,0.877-0.72,1.425-0.864c1.566-0.413,3.22-0.074,4.803,0.267l-2.253-0.682 C144.117,62.224,145.133,62.322,145.867,62.929z"/></g></g></g><g style="opacity:.3"><g><g><path d="M99.451,134.403c-1.783,1.227-3.692-1.542-1.906-2.771C99.328,130.406,101.237,133.174,99.451,134.403z"/></g></g></g><g style="opacity:.3"><g><g><path d="M92.818,125.19c2.292-1.577,4.747,1.983,2.451,3.563C92.977,130.329,90.522,126.77,92.818,125.19z"/></g></g></g><g style="opacity:.3"><g><g><path d="M109.71,131.346c-4.367,0.226-8.686-1.161-10.455-5.813c-0.989-2.599-0.571-5.883,2.575-6.516 c3.14-0.632,5.572,1.721,7.295,3.93c1.474,1.89,2.568,1.789,4.747,2.229c1.256,0.254,2.575,0.608,3.549,1.496 c1.801,1.643,1.959,4.658-0.411,5.851C114.917,133.578,112.067,132.369,109.71,131.346z"/></g></g></g><g style="opacity:.3"><g><g><path d="M115.516,149.001c0.816-1.295,2.067-2.909,3.56-3.674c0.161-0.117,0.328-0.229,0.509-0.333 c1.503-0.866,3.694-1.232,4.898,0.361c1.05,1.39,0.584,3.326-0.821,4.289c-0.702,0.482-1.471,0.563-2.272,0.76 c-1.014,0.25-1.939,0.634-2.823,1.185C116.993,152.57,114.337,150.872,115.516,149.001z"/></g></g></g><g style="opacity:.3"><g><g><path d="M121.336,141.426c-0.38,0.162-0.824,0.181-1.223,0.076c-1.156-0.178-1.61-1.892-0.554-2.598 c0.681-0.455,1.611-0.506,2.221,0.115C122.553,139.805,122.376,140.983,121.336,141.426z"/></g></g></g><g style="opacity:.3"><g><g><path d="M130.778,106.389c-2.096,2.307-5.151,1.162-7.645,0.393c-2.487-0.768-5.512-1.378-6.27-4.279 c-0.724-2.774,1.672-5.177,4.251-5.6c2.571-0.422,5.614,0.482,7.615,2.128c0.373,0.307,0.657,0.666,0.9,1.044 c0.2,0.146,0.395,0.298,0.575,0.47C131.8,102.077,132.378,104.628,130.778,106.389z"/></g></g></g><g style="opacity:.3"><g><g><path d="M136.682,110.046c-0.237-0.015-0.464-0.076-0.681-0.184c-0.05-0.031-0.081-0.049-0.123-0.075 c-0.827-0.065-1.472-0.667-1.854-1.502c-0.416-0.909,0.256-2.233,1.204-2.481c1.47-0.385,3.192-0.023,3.747,1.577 C139.504,108.908,138.17,110.205,136.682,110.046z"/></g></g></g><g style="opacity:.3"><g><g><path d="M134.68,115.63c-1.116,1.857-3.204,1.707-5.1,1.617c-1.959-0.093-4.101,0.039-6.017-0.426 c-1.596-0.387-3.135-1.39-3.414-3.12c-0.258-1.607,0.943-2.981,2.489-3.223c1.832-0.287,3.672,0.563,5.42,0.987 c0.259,0.063,0.517,0.097,0.774,0.138c0.032-0.016,0.055-0.038,0.089-0.053C131.475,110.417,136.878,111.973,134.68,115.63z"/></g></g></g><g style="opacity:.3"><g><g><path d="M146.891,55.955c-2.136,2.116-4.77,3.681-7.88,3.854c-3.746,0.209-9.137-1.336-11.529-4.494 c-0.963-0.372-1.791-0.905-2.411-1.62C132.437,53.153,139.832,53.92,146.891,55.955z"/></g></g></g><g style="opacity:.3"><g><g><path d="M170.988,93.395c-0.068,0.103-0.159,0.182-0.237,0.275c0.876,1.939,1.056,4.379,0.089,6.132 c0.335,0.89,0.056,1.999-1.008,2.296c-1.079,0.3-2.044,0.212-2.863-0.211c-1.06-0.125-2.059-0.691-2.799-1.544 c-1.368-1.578-1.272-3.311-1.611-5.246c-0.008-0.048-0.024-0.093-0.034-0.141c-0.417-0.955-0.814-1.919-1.374-2.795 c-0.323-0.505-0.702-0.985-0.901-1.551c-0.624-1.771,0.82-3.733,2.592-4.351c0.232-0.081,0.468-0.144,0.706-0.193 c0.565-0.669,1.633-0.441,2.492-0.072c0.791,0.085,1.584,0.243,2.356,0.414l-1.686-0.098c1.35,0.651,2.699,1.366,3.659,2.506 C171.434,90.079,171.89,92.013,170.988,93.395z"/></g></g></g><g style="opacity:.3"><g><g><path d="M108.564,86.267c0.901-1.797,3.313-1.733,4.316-0.089c0.425,0.697,0.498,1.536,0.597,2.33 c0.025,0.198,0.04,0.41,0.063,0.62c0.11,0.12,0.217,0.254,0.266,0.304c0.525,0.546,0.939,1.123,1.141,1.861 c0.445,1.631-1.224,3.651-2.956,2.66c-1.062-0.608-1.848-1.48-2.279-2.61c-0.043-0.062-0.073-0.138-0.112-0.203 C108.345,89.852,107.694,88,108.564,86.267z"/></g></g></g><g style="opacity:.3"><g><g><path d="M178.137,111.873c-2.547-1.89-1.138-5.236-1.336-7.834c-0.211-2.782-3.465-4.691-2.325-7.645 c0.838-2.17,3.312-2.415,5.066-1.248c1.947,1.294,3.291,3.409,4.058,5.781c1.844,3.201,2.6,6.982,0.296,9.908 C182.584,112.501,179.949,113.217,178.137,111.873z"/></g></g></g><g style="opacity:.3"><g><g><path d="M172.36,87.121c-0.721-1.172,0.197-3.077,1.734-2.672c1.274,0.337,2.484,0.838,3.476,1.731 c0.917,0.826,1.853,2.335,1.266,3.558c-0.046,0.095-0.109,0.164-0.169,0.24c-0.112,0.673-0.437,1.323-0.953,1.788 c-1.275,1.15-3.176,0.961-4.331-0.258c-0.557-0.588-0.887-1.344-0.9-2.159C172.469,88.565,172.801,87.838,172.36,87.121z"/></g></g></g><g style="opacity:.3"><g><g><path d="M167.15,83.903c-0.569-0.225-0.832-0.645-0.923-1.236c-0.084-0.545,0.334-0.954,0.769-1.169 c0.558-0.276,1.044-0.034,1.518,0.273c0.526,0.34,0.558,1.186,0.245,1.659C168.395,83.978,167.757,84.142,167.15,83.903z"/></g></g></g><g style="opacity:.3"><g><g><path d="M181.72,83.862c-3.024-3.831-6.31-4.569-10.79-5.69c-2.415-0.605-4.803-1.462-6.485-3.394 c-2.81-3.226-2.481-7.612-1.54-11.622c6.854,4.344,12.965,10.11,17.856,17.218c1.001,1.455,1.913,2.943,2.774,4.448 C182.849,84.751,182.189,84.456,181.72,83.862z"/></g></g></g><g style="opacity:.3"><g><g><path d="M158.776,66.868c-0.061,1.31-0.825,2.501-2.247,2.605c-0.039,0.003-0.08-0.006-0.119-0.005 c-0.293,0.102-0.595,0.154-0.877,0.134c-1.219-0.086-1.98-0.951-2.182-2.12c-0.104-0.6-0.088-1.186,0.002-1.756 c0.021-2.249,0.192-5.066,1.261-6.971c1.848,0.81,3.66,1.71,5.43,2.702C159.286,63.163,158.819,64.976,158.776,66.868z"/></g></g></g><g style="opacity:.3"><g><g><path d="M147.232,61.039c-0.597-0.815-0.226-2.213,0.943-2.229c0.194-0.003,0.386,0.008,0.576,0.024 c0.06-0.008,0.114-0.032,0.175-0.035c0.503-0.019,0.932,0.158,1.252,0.458c0.335,0.203,0.625,0.487,0.843,0.88 c0.086,0.155,0.139,0.316,0.173,0.479c0.043,0.093,0.098,0.181,0.129,0.278c0.193,0.595-0.106,1.353-0.745,1.536 c-0.86,0.246-1.745,0.36-2.517-0.188C147.645,61.949,147.357,61.517,147.232,61.039z"/></g></g></g><g style="opacity:.3"><g><g><path d="M161.863,75.169c0.245,0.611,0.361,1.111,0.173,1.712c1.344,1.71,1.854,4.574-0.453,5.337 c-1.36,0.45-2.459-0.63-2.755-1.874c-0.338-1.417-0.005-3.115,0.06-4.561C158.962,74.104,161.178,73.464,161.863,75.169z"/></g></g></g><g style="opacity:.3"><g><g><path d="M92.645,150.277c-0.84-1.222-0.504-2.56,0.153-3.779c0.671-1.243,1.143-2.43,1.106-3.866 c-0.045-1.751,2.102-2.49,3.165-1.113c1.064,1.379,1.321,3.208,0.929,4.883c-0.319,1.365-0.935,3.018-2.292,3.569 c-0.256,0.257-0.545,0.497-0.884,0.708C94.103,151.126,93.143,151.001,92.645,150.277z"/></g></g></g><g style="opacity:.3"><g><g><path d="M78.897,147.078c0.586,1.466,0.802,3.101,0.448,4.594c-0.245-0.341-0.5-0.67-0.738-1.017 c-2.032-2.954-3.757-6.027-5.213-9.175c0.069,0.001,0.132-0.007,0.207,0.006C76.295,141.94,77.953,144.717,78.897,147.078z"/></g></g></g><g style="opacity:.3"><g><g><path d="M146.78,159.255c-2.179-0.562-2.631-3.345-2.329-5.25c0.44-2.771,2.092-4.791,1.657-7.721 c-0.342-2.306-1.084-4.852,0.14-7.04c0.864-1.545,2.642-2.514,4.399-2.092c1.628,0.391,2.682,1.584,3.348,3.125 c1.185,1.047,2.061,2.482,2.481,4.167c0.879,3.531-0.512,7.177-3.113,9.581C152.456,157.045,149.962,160.076,146.78,159.255z"/></g></g></g><g style="opacity:.3"><g><g><path d="M143.403,148.643c-0.917,0.319-2.018-0.186-2.547-0.962c-0.664-0.974-0.672-2.512,0.122-3.382 c0.176-0.455,0.509-0.834,1.11-1.041c1.99-0.688,3.332,1.657,2.925,3.353C144.814,147.445,144.251,148.348,143.403,148.643z"/></g></g></g><g style="opacity:.3"><g><g><path d="M159.039,140.413c-0.314,0.403-0.992,0.693-1.501,0.538c-1.267-0.385-2.182-1.155-2.668-2.406 c-0.465-1.196,0.672-2.271,1.826-2.124c0.832-0.332,1.816-0.072,2.403,0.649C159.912,138.069,159.81,139.422,159.039,140.413z"/></g></g></g><g style="opacity:.2"><g><g><path d="M68.471,107.429c1.389,8.89,4.742,17.615,10.183,25.524c19.408,28.209,58.008,35.343,86.216,15.935 c15.031-10.342,24.075-26.133,26.312-42.898c3.566,22.82-5.818,46.726-26.119,60.692 c-28.208,19.408-66.809,12.273-86.216-15.936C69.781,137.571,66.511,122.126,68.471,107.429z"/></g></g></g></g></g></g><g id="Dog"><g><g><g><g><path style="fill:#ff725e" d="M216.903,324.803l-15.876-3.584c-0.087,3.134-3.525,8.051-3.612,11.185 c-0.061,2.208,2.611,7.309,2.611,7.309s-2.589,0.93-4.061,2.254c-3.091,2.781-2.833,8.173,0.035,11.184 c2.868,3.01,6.577,3.05,10.499,1.233c3.355-1.554,6.251-2.446,7.944-5.734c0.943-1.831-0.163-9.269-1.264-14.078 C212.171,330.175,216.868,326.331,216.903,324.803z"/></g><g style="opacity:.3"><g><path d="M216.903,324.803l-15.876-3.584c-0.087,3.134-3.525,8.051-3.612,11.185c-0.061,2.208,2.611,7.309,2.611,7.309 s-2.589,0.93-4.061,2.254c-3.091,2.781-2.833,8.173,0.035,11.184c2.868,3.01,6.577,3.05,10.499,1.233 c3.355-1.554,6.251-2.446,7.944-5.734c0.943-1.831-0.163-9.269-1.264-14.078C212.171,330.175,216.868,326.331,216.903,324.803 z"/></g></g></g><g><g><path style="fill:#ae7461" d="M214.387,290.538c5.714-4.329,8.867-11.812,7.975-18.925c3.463,3.742,5.391,8.866,5.254,13.963 c-0.137,5.097-2.339,10.109-5.999,13.66"/></g><g><path style="fill:#ff725e" d="M148.716,305.83c-1.686,7.765-1.522,16.5,3.194,22.895c3.189,4.325,8.158,7.101,13.359,8.452 c5.201,1.351,10.654,1.384,16.017,1.048c6.77-0.423,13.559-1.435,19.918-3.797c6.359-2.362,12.295-6.141,16.529-11.441 s6.646-12.199,5.869-18.938c-0.777-6.739-4.98-13.157-11.176-15.919c-4.079-1.818-8.737-2.013-13.144-1.289 c-4.406,0.724-8.617,2.32-12.761,3.982"/></g><g><path style="fill:#ff725e" d="M152.865,322.176c-3.687-0.28-10.42,2.806-13.228,5.211c-2.808,2.405-5.115,4.945-5.853,8.568 c-0.863,4.236,0.031,7.836,3.622,9.931c3.591,2.096,8.898,1.102,10.89-2.547c0.949-1.738,1.127-3.866,2.328-5.44 c1.34-1.756,3.634-2.428,5.768-2.997c3.029-0.808,6.059-1.616,9.088-2.424"/></g><g><path style="fill:#ff725e" d="M184.191,328.374c1.038,3.289,5.907,19.708,5.366,23.366c-0.541,3.658-2.995,5.436-5.669,7.99 c-3.126,2.986-6.65,4.145-10.335,2.221c-3.686-1.924-5.67-6.945-3.642-10.575c0.966-1.728,3.116-3.444,3.116-3.444 s-0.97-5.246-1.624-7.356c-0.929-2.995-2.466-7.477-3.395-10.471"/></g><g><path style="fill:#ff725e" d="M217.06,309.754c1.201,0.945,1.454,7.009,5.575,8.846c4.506,2.008,11.117,5.591,12.015,7.445 c1.612,3.328,0.586,6.179-0.186,9.795c-0.903,4.228-3.162,7.169-7.291,7.654c-4.129,0.485-8.597-2.548-8.963-6.689 c-0.175-1.972,0.637-4.601,0.637-4.601s-8.275-0.771-10.003-2.146c-2.454-1.952-3.367-4.293-4.182-9.762"/></g><g><g><path style="fill:#263238" d="M170.203,338.083c-0.002,0.033-0.45,0.039-1.258-0.014c-0.807-0.053-1.975-0.184-3.398-0.473 c-2.814-0.567-6.791-1.885-10.128-4.911c-3.31-3.006-5.317-6.632-6.287-9.355c-0.496-1.366-0.78-2.509-0.924-3.307 c-0.146-0.797-0.182-1.244-0.152-1.249c0.1-0.022,0.355,1.761,1.42,4.424c1.044,2.65,3.058,6.163,6.294,9.102 c3.237,2.937,7.096,4.285,9.858,4.937C168.421,337.892,170.214,337.986,170.203,338.083z"/></g></g><g><g><path style="fill:#263238" d="M172.69,345.075c-0.137,0.043-1.392-3.535-2.803-7.991c-1.411-4.458-2.443-8.105-2.306-8.149 c0.137-0.043,1.392,3.534,2.803,7.992C171.794,341.383,172.827,345.032,172.69,345.075z"/></g></g><g><g><path style="fill:#263238" d="M202.455,314.004c0.085,0.019-0.196,1.181-0.377,3.08c-0.174,1.881-0.205,4.586,0.85,7.276 c1.065,2.681,3.113,4.535,4.795,5.342c1.699,0.842,2.938,0.798,2.921,0.908c0,0.029-0.301,0.063-0.845,0.021 c-0.544-0.038-1.33-0.204-2.233-0.595c-1.8-0.757-4.003-2.662-5.123-5.484c-1.102-2.816-1.001-5.612-0.731-7.51 c0.137-0.96,0.311-1.725,0.457-2.245C202.314,314.276,202.422,313.996,202.455,314.004z"/></g></g><g><g><path style="fill:#263238" d="M218.547,306.558c-0.045,0.081-0.807-0.349-2.129-0.76c-1.317-0.416-3.229-0.73-5.327-0.517 c-2.098,0.224-3.904,0.925-5.107,1.603c-1.209,0.674-1.866,1.251-1.927,1.181c-0.037-0.035,0.538-0.718,1.738-1.498 c1.191-0.781,3.058-1.572,5.242-1.804c2.184-0.223,4.174,0.167,5.5,0.686C217.872,305.966,218.576,306.517,218.547,306.558z"/></g></g><g><g><path style="fill:#263238" d="M183.383,323.69c-0.069,0.057-0.586-0.609-1.661-1.383c-1.059-0.773-2.754-1.604-4.757-1.733 c-2.004-0.125-3.791,0.484-4.938,1.118c-1.164,0.632-1.762,1.228-1.823,1.162c-0.042-0.033,0.471-0.735,1.637-1.48 c1.145-0.742,3.022-1.453,5.157-1.32c2.134,0.138,3.906,1.08,4.948,1.961C183.008,322.901,183.428,323.662,183.383,323.69z"/></g></g></g><g><path style="fill:#ae7461" d="M187.636,280.661c-2.136-13.477-8.239-26.301-17.351-36.458l-9.602-1.298 c-8.396-0.644-17.01,3.02-22.369,9.516c-2.895,3.51-4.887,7.769-8.228,10.857c-3.475,3.212-8.089,4.861-12.631,6.187 c-0.805,0.235-1.71,0.544-2.047,1.312c-0.207,0.471-0.145,1.013-0.058,1.52c0.869,5.056,3.985,9.682,8.344,12.387 c4.359,2.705,9.888,3.444,14.804,1.978c1.256-0.375,2.6-0.887,3.834-0.444c1.13,0.405,1.838,1.501,2.462,2.527 c1.819,2.988,3.638,5.976,5.458,8.964c0.622,1.022,1.311,2.104,2.41,2.579c1.49,0.644,3.19-0.034,4.667-0.706 c9.082-4.13,18.163-8.259,27.245-12.389c0.864-0.393,1.758-0.808,2.367-1.535C188.057,284.328,187.908,282.377,187.636,280.661z"/></g><g><path style="fill:#ae7461" d="M157.941,248.434c0.184-9.632,4.834-19.088,12.35-25.114c1.211-0.971,2.797-1.899,4.23-1.304 c0.968,0.402,1.543,1.386,2.019,2.32c4.576,8.977,4.139,24.616,2.826,34.606"/></g><g><path style="fill:#ae7461" d="M133.13,258.941c-4.835-5.75-7.702-13.126-8.02-20.632c-0.084-1.982,0.227-4.349,1.989-5.261 c1.283-0.664,2.841-0.268,4.2,0.219c7.355,2.637,13.825,7.678,18.181,14.165"/></g><g><path style="fill:#263238" d="M151.578,258.984c2.263-0.404,4.491,2.112,3.816,4.31c-0.675,2.198-3.93,3.03-5.577,1.426 c-1.647-1.604-0.9-4.88,1.28-5.612"/></g><g><path style="fill:#263238" d="M117.354,276.538c2.305,1.249,5.235,1.074,7.764,0.382c2.529-0.692,4.839-2.693,5.226-5.287 c0.183-1.223-0.129-2.596-1.094-3.37c-0.798-0.64-1.884-0.768-2.907-0.777c-3.228-0.029-8.064,1.142-10.782,2.882 C115.56,270.368,113.347,274.367,117.354,276.538z"/></g><g><path style="fill:#e0e0e0" d="M153.556,307.005c-29.785,0-54.016-24.231-54.016-54.016c0-29.785,24.231-54.017,54.016-54.017 s54.017,24.232,54.017,54.017c0,12.424-4.101,24.103-11.859,33.773l-0.78-0.625c7.614-9.492,11.639-20.954,11.639-33.148 c0-29.233-23.783-53.017-53.017-53.017s-53.016,23.783-53.016,53.017c0,29.232,23.783,53.016,53.016,53.016V307.005z"/></g><g><path style="fill:#ff725e" d="M150.133,279.094c1.331,1.823,2.856,3.547,4.761,4.757c1.905,1.21,4.234,1.87,6.451,1.444 c2.216-0.426,4.25-2.068,4.792-4.258c0.628-2.534-0.824-5.227-2.915-6.788c-2.092-1.562-4.71-2.213-7.269-2.73"/></g><g><g><path style="fill:#263238" d="M121.816,278.454c0.034-0.012,0.304,0.523,0.758,1.488c0.582,0.887,1.397,2.234,2.923,3.396 c1.479,1.197,3.561,2.197,5.994,2.846c1.219,0.315,2.527,0.552,3.893,0.67c1.367,0.148,2.77,0.052,4.177-0.29 c2.813-0.697,5.212-2.232,7.094-3.89c1.884-1.679,3.3-3.49,4.423-5.043c1.118-1.562,1.952-2.879,2.544-3.78 c0.588-0.903,0.924-1.397,0.955-1.378c0.03,0.018-0.247,0.547-0.782,1.484c-0.539,0.934-1.327,2.284-2.415,3.885 c-1.093,1.592-2.495,3.451-4.405,5.189c-1.908,1.715-4.365,3.312-7.29,4.038c-1.452,0.357-2.953,0.452-4.345,0.292 c-1.397-0.128-2.729-0.38-3.973-0.715c-2.482-0.689-4.607-1.752-6.102-3.023c-1.541-1.235-2.335-2.655-2.871-3.587 C121.987,279.025,121.782,278.466,121.816,278.454z"/></g></g><g><g><path style="fill:#263238" d="M161.084,280.685c-0.108,0.108-1.419-1.083-3.208-2.308c-1.783-1.235-3.362-2.036-3.3-2.175 c0.049-0.126,1.764,0.478,3.596,1.746C160.008,279.207,161.184,280.594,161.084,280.685z"/></g></g><g><g><path style="fill:#263238" d="M155.873,250.878c-0.441,0.576-2.273-0.079-4.344,0.136c-2.077,0.146-3.768,1.108-4.302,0.617 c-0.248-0.244-0.105-0.9,0.583-1.626c0.671-0.719,1.935-1.451,3.493-1.586c1.558-0.136,2.929,0.366,3.714,0.958 C155.82,249.974,156.075,250.595,155.873,250.878z"/></g></g><g><g><path style="fill:#ae7461" d="M150.034,235.555c0.728-0.034,1.41,2.073,2.028,4.621c0.602,2.553,0.947,4.74,0.282,5.039 c-0.643,0.297-2.146-1.613-2.815-4.433C148.85,237.965,149.326,235.581,150.034,235.555z"/></g></g><g><g><path style="fill:#ae7461" d="M154.404,231.855c0.676,0.292,0.212,2.811-0.089,5.836c-0.336,3.023-0.407,5.583-1.129,5.727 c-0.347,0.06-0.795-0.545-1.126-1.633c-0.331-1.083-0.513-2.653-0.334-4.367c0.182-1.713,0.687-3.21,1.237-4.201 C153.513,232.222,154.077,231.724,154.404,231.855z"/></g></g><g><g><path style="fill:#ae7461" d="M156.684,239.591c0.449,0.571-0.02,1.689-0.754,2.757c-0.751,1.057-1.638,1.883-2.329,1.657 c-0.678-0.211-0.793-1.736,0.195-3.148C154.781,239.444,156.253,239.026,156.684,239.591z"/></g></g><g><path style="fill:#6f4439" d="M167.527,249.559c-2.532-3.608-2.699-8.475-1.415-12.691c1.285-4.216,3.853-7.911,6.508-11.428 c2.297,3.883,3.939,8.323,3.632,12.824c-0.307,4.501-4.025,9.718-8.2,11.429"/></g><g><g><path style="fill:#263238" d="M148.343,245.126c0.034,0.085-1.162,0.56-2.962,1.564c-1.8,0.999-4.172,2.604-6.42,4.799 c-2.241,2.203-3.895,4.542-4.932,6.321c-1.042,1.779-1.541,2.964-1.625,2.929c-0.033-0.013,0.064-0.32,0.27-0.866 c0.198-0.549,0.548-1.319,1.034-2.243c0.967-1.849,2.605-4.269,4.888-6.513c2.29-2.236,4.743-3.824,6.611-4.752 c0.934-0.467,1.711-0.801,2.264-0.988C148.021,245.184,148.33,245.093,148.343,245.126z"/></g></g><g><path style="fill:#e0e0e0" d="M198.352,288.816l-50.556,23.147c-2.016,0.923-4.398,0.037-5.322-1.979l0,0 c-0.923-2.016-0.037-4.398,1.979-5.321l50.556-23.147c2.016-0.923,4.398-0.037,5.321,1.979l0,0 C201.254,285.51,200.368,287.893,198.352,288.816z"/></g></g><g><g><path style="fill:#263238" d="M235.497,284.036c-0.088-0.015,0.048-0.86,0.026-2.219c-0.017-1.357-0.267-3.236-1.005-5.17 c-0.747-1.931-1.819-3.494-2.715-4.514c-0.894-1.025-1.56-1.561-1.505-1.631c0.03-0.045,0.785,0.391,1.775,1.381 c0.99,0.982,2.157,2.574,2.93,4.577c0.766,2.005,0.965,3.969,0.887,5.361C235.818,283.22,235.549,284.049,235.497,284.036z"/></g></g><g><g><path style="fill:#263238" d="M239.969,280.333c-0.088-0.018,0.047-0.737,0.016-1.892c-0.025-1.152-0.294-2.746-1.033-4.341 c-0.748-1.592-1.798-2.82-2.665-3.579c-0.866-0.765-1.504-1.123-1.461-1.202c0.021-0.049,0.732,0.196,1.695,0.918 c0.961,0.713,2.118,1.971,2.903,3.643c0.778,1.675,1,3.369,0.93,4.564C240.288,279.646,240.02,280.348,239.969,280.333z"/></g></g><g><g><path style="fill:#263238" d="M212.634,272.503c-0.129-0.032,0.433-1.639,2.009-2.918c1.565-1.295,3.25-1.529,3.256-1.397 c0.045,0.151-1.472,0.59-2.926,1.8C213.503,271.175,212.773,272.576,212.634,272.503z"/></g></g><g><g><path style="fill:#263238" d="M209.432,268.346c-0.102-0.087,1.051-1.514,2.907-2.774c1.85-1.27,3.598-1.826,3.642-1.698 c0.059,0.142-1.554,0.895-3.349,2.129C210.832,267.224,209.543,268.453,209.432,268.346z"/></g></g></g></g><g id="Astronaut"><g><g><g><path style="fill:#ff725e" d="M387.747,296.661l-55.473-3.011c-13.858-0.752-24.482-12.596-23.73-26.454l2.695-49.64 c0.752-13.858,12.596-24.482,26.454-23.73l55.473,3.011c13.858,0.752,24.482,12.596,23.73,26.454l-2.694,49.64 C413.449,286.789,401.605,297.414,387.747,296.661z"/></g><g><g><path style="fill:#263238" d="M364.369,295.392c0,0,0.318-0.017,0.937-0.023c0.618-0.021,1.541,0.042,2.738-0.128 c2.381-0.216,5.963-0.907,9.962-3.153c1.964-1.151,4.066-2.631,5.95-4.682c1.884-2.037,3.612-4.566,4.842-7.564 c0.35-0.733,0.572-1.529,0.823-2.327c0.286-0.79,0.425-1.632,0.604-2.478c0.214-0.841,0.254-1.723,0.356-2.608 c0.113-0.882,0.124-1.799,0.182-2.72c0.194-3.691,0.4-7.592,0.616-11.688c0.435-8.193,0.911-17.167,1.423-26.799 c0.129-2.408,0.259-4.858,0.392-7.347c0.193-2.495,0.169-4.999-0.261-7.515c-0.389-2.52-1.303-4.975-2.505-7.291 c-1.217-2.311-2.798-4.49-4.76-6.328c-3.866-3.709-9.071-6.29-14.686-6.796c-1.388-0.18-2.83-0.197-4.257-0.291 c-1.432-0.077-2.871-0.155-4.318-0.233c-2.893-0.156-5.813-0.314-8.76-0.473c-11.786-0.638-23.989-1.299-36.487-1.975 c-6.202-0.337-12.385,1.738-17.045,5.571c-4.682,3.805-7.866,9.27-8.812,15.043c-0.439,2.877-0.466,5.829-0.657,8.715 c-0.158,2.893-0.315,5.758-0.47,8.593c-0.311,5.67-0.615,11.221-0.912,16.637c-0.298,5.416-0.588,10.697-0.87,15.829 c-0.149,2.572-0.292,5.082,0.056,7.536c0.382,2.438,1.035,4.8,2.041,6.974c1.042,2.148,2.283,4.167,3.814,5.9 c1.546,1.704,3.203,3.284,5.091,4.463l0.686,0.468l0.724,0.399c0.483,0.262,0.957,0.537,1.44,0.786 c1.01,0.402,1.964,0.923,2.997,1.196c0.508,0.161,1.013,0.321,1.515,0.481c0.515,0.108,1.028,0.216,1.538,0.324 c1.012,0.262,2.048,0.293,3.058,0.421c16.372,0.932,29.622,1.687,38.794,2.209c4.571,0.269,8.123,0.479,10.547,0.621 c1.196,0.076,2.111,0.135,2.742,0.175C364.053,295.358,364.369,295.392,364.369,295.392s-0.318,0.001-0.936-0.024 c-0.632-0.028-1.548-0.069-2.745-0.123c-2.426-0.12-5.979-0.297-10.552-0.524c-9.176-0.483-22.431-1.182-38.809-2.044 c-1.024-0.126-2.076-0.156-3.104-0.419c-0.518-0.108-1.038-0.216-1.562-0.325c-0.51-0.16-1.023-0.322-1.539-0.484 c-1.05-0.276-2.021-0.8-3.047-1.207c-0.491-0.252-0.974-0.529-1.465-0.795l-0.736-0.404l-0.699-0.473 c-1.921-1.194-3.61-2.795-5.185-4.525c-1.559-1.759-2.827-3.809-3.891-5.993c-1.027-2.21-1.698-4.612-2.09-7.094 c-0.359-2.496-0.216-5.07-0.072-7.622c0.275-5.132,0.558-10.414,0.848-15.83c0.291-5.416,0.59-10.967,0.894-16.638 c0.153-2.835,0.307-5.7,0.463-8.594c0.19-2.893,0.209-5.812,0.657-8.774c0.963-5.893,4.21-11.475,8.988-15.359 c4.755-3.914,11.071-6.035,17.401-5.69c12.498,0.68,24.701,1.344,36.487,1.986c2.946,0.161,5.867,0.32,8.759,0.478 c1.446,0.079,2.885,0.158,4.317,0.236c1.434,0.095,2.852,0.112,4.281,0.296c5.727,0.523,11.034,3.16,14.968,6.945 c1.996,1.876,3.605,4.098,4.842,6.455c1.222,2.361,2.148,4.865,2.541,7.432c0.436,2.549,0.451,5.145,0.254,7.618 c-0.137,2.489-0.273,4.938-0.405,7.346c-0.534,9.631-1.032,18.603-1.486,26.796c-0.229,4.095-0.447,7.995-0.653,11.686 c-0.062,0.923-0.075,1.83-0.193,2.729c-0.107,0.896-0.151,1.788-0.37,2.639c-0.184,0.856-0.329,1.708-0.621,2.507 c-0.258,0.808-0.486,1.611-0.843,2.352c-1.258,3.029-3.017,5.577-4.931,7.623c-1.913,2.061-4.043,3.542-6.031,4.689 c-4.047,2.238-7.658,2.898-10.052,3.081c-1.203,0.153-2.129,0.072-2.748,0.076 C364.685,295.412,364.369,295.392,364.369,295.392z"/></g></g><g><g><path style="fill:#263238" d="M404.235,291.414c-0.045,0.064-0.919-0.487-2.348-1.339c-1.429-0.853-3.428-1.987-5.706-3.099 c-2.281-1.11-4.405-1.986-5.957-2.587c-1.552-0.602-2.524-0.951-2.501-1.025c0.019-0.063,1.031,0.162,2.625,0.678 c1.593,0.515,3.76,1.345,6.062,2.465c2.299,1.123,4.288,2.318,5.675,3.256C403.473,290.701,404.273,291.36,404.235,291.414z"/></g></g><g><g><path style="fill:#263238" d="M412.742,206.744c-0.01,0.089-1.228-0.039-3.191-0.014c-1.961,0.021-4.674,0.267-7.569,1.021 c-2.894,0.763-5.378,1.88-7.098,2.824c-1.723,0.941-2.721,1.65-2.773,1.578c-0.021-0.029,0.209-0.232,0.646-0.575 c0.432-0.349,1.096-0.805,1.944-1.322c1.694-1.038,4.203-2.232,7.149-3.008c2.947-0.768,5.719-0.959,7.704-0.885 c0.993,0.034,1.795,0.107,2.343,0.198C412.446,206.645,412.746,206.708,412.742,206.744z"/></g></g><g><g><path style="fill:#ff725e" d="M387.491,297.737c0.576,8.247,8.982,14.058,16.94,12.173 c8.001-1.896,13.095-10.272,12.145-18.224c-0.576-4.816-2.81-9.237-6.233-12.664c-2.277-2.28-5.813,1.255-3.536,3.535 c4.082,4.087,6.472,10.724,3.796,16.221c-2.337,4.802-8.036,8.239-13.216,5.596c-2.541-1.297-4.691-3.688-4.896-6.637 c-0.094-1.347-1.082-2.5-2.5-2.5C388.711,295.237,387.397,296.383,387.491,297.737L387.491,297.737z"/></g></g></g><g><g><path style="fill:#e0e0e0" d="M291.121,208.894c0,0-23.568-10.327-31.826-19.824c-8.258-9.496-26.947-28.881-32.608-25.624 c-5.661,3.257-1.31,8.977-0.608,11.208c0.701,2.232,7.542,7.538,7.542,7.538s-6.317,0.206-5.58,6.826c0,0-6.924,1.269-4.213,6.9 c0,0-6.199,2.131-2.034,9.212c4.166,7.081,26.275,29.119,41.029,35.129c14.754,6.01,24.898,6.013,24.898,6.013L291.121,208.894z"/></g><g><g><path style="fill:#263238" d="M234.079,183.055c0.006-0.025,0.431,0.036,1.156,0.307c0.714,0.284,1.738,0.795,2.771,1.734 c1.029,0.927,2.075,2.291,2.655,4.063c0.287,0.88,0.457,1.861,0.383,2.884c-0.068,1.016-0.42,2.087-1.124,2.94 c-0.686,0.857-1.707,1.448-2.762,1.534c-1.053,0.095-2.033-0.207-2.869-0.594c-1.67-0.814-2.938-1.907-3.872-2.924 c-0.936-1.022-1.526-1.982-1.884-2.662c-0.355-0.684-0.489-1.089-0.461-1.102c0.094-0.058,0.728,1.563,2.612,3.511 c0.939,0.957,2.209,1.993,3.805,2.741c0.796,0.357,1.701,0.614,2.62,0.523c0.915-0.083,1.791-0.589,2.409-1.355 c1.278-1.557,1.209-3.713,0.687-5.351c-0.523-1.684-1.489-3.012-2.449-3.938C235.789,183.496,234.021,183.161,234.079,183.055z"/></g></g><g><g><path style="fill:#263238" d="M235.551,195.744c0.021-0.011,0.188,0.213,0.324,0.693c0.137,0.475,0.2,1.221-0.031,2.092 c-0.234,0.86-0.777,1.846-1.736,2.583c-0.957,0.739-2.302,1.107-3.668,1.015c-1.37-0.095-2.621-0.611-3.564-1.314 c-0.953-0.696-1.629-1.525-2.109-2.257c-0.475-0.74-0.765-1.388-0.934-1.845c-0.169-0.457-0.223-0.723-0.193-0.734 c0.086-0.038,0.442,0.987,1.43,2.37c0.501,0.68,1.175,1.443,2.084,2.074c0.897,0.638,2.058,1.096,3.321,1.185 c1.257,0.085,2.478-0.24,3.347-0.88c0.875-0.639,1.412-1.522,1.67-2.304C236.017,196.806,235.442,195.757,235.551,195.744z"/></g></g><g><g><path style="fill:#263238" d="M230.881,201.749c0.022-0.043,0.747,0.536,1.113,1.908c0.169,0.675,0.228,1.537-0.024,2.445 c-0.243,0.909-0.841,1.815-1.698,2.476c-0.861,0.657-1.891,1-2.832,0.999c-0.942,0.008-1.761-0.272-2.368-0.61 c-1.23-0.708-1.601-1.558-1.554-1.569c0.071-0.065,0.543,0.672,1.723,1.242c0.584,0.273,1.343,0.49,2.188,0.458 c0.84-0.024,1.751-0.343,2.526-0.933c0.77-0.596,1.314-1.393,1.555-2.198c0.25-0.807,0.237-1.596,0.125-2.231 C231.389,202.448,230.8,201.802,230.881,201.749z"/></g></g><g><g><path style="fill:#263238" d="M246.311,205.554c-0.017,0.167-2.635-0.398-5.731,0.413c-3.108,0.765-5.139,2.511-5.234,2.373 c-0.04-0.045,0.406-0.543,1.287-1.159c0.877-0.617,2.219-1.31,3.818-1.719c1.599-0.403,3.109-0.435,4.174-0.312 C245.695,205.27,246.325,205.495,246.311,205.554z"/></g></g><g><g><path style="fill:#263238" d="M247.459,231.023c-0.033-0.014,0.156-0.558,0.526-1.533c0.366-0.976,0.939-2.372,1.687-4.079 c1.492-3.416,3.75-8.056,6.61-12.977c2.867-4.92,5.786-9.176,8.019-12.16c1.116-1.493,2.045-2.681,2.713-3.482 c0.664-0.803,1.044-1.237,1.073-1.214c0.028,0.022-0.298,0.498-0.912,1.338c-0.618,0.837-1.501,2.057-2.576,3.574 c-2.152,3.032-5.01,7.304-7.867,12.206c-2.85,4.904-5.151,9.499-6.725,12.867c-0.788,1.684-1.412,3.054-1.835,4.005 C247.744,230.517,247.492,231.036,247.459,231.023z"/></g></g><g><g><path style="fill:#e0e0e0" d="M246.604,180.868c-6.015,1.255-10.858,6.816-11.275,12.947 c-0.159,2.336,0.358,4.874,2.074,6.467c1.716,1.593,4.829,1.735,6.22-0.148c1.556-2.106,0.353-5.415,1.959-7.484 c-0.201,2.289,1.073,4.641,3.1,5.723c2.027,1.083,4.69,0.834,6.481-0.606"/></g><g><g><path style="fill:#263238" d="M255.164,197.767c0.008,0.01-0.054,0.07-0.182,0.18c-0.126,0.112-0.329,0.259-0.61,0.427 c-0.559,0.328-1.469,0.73-2.703,0.796c-1.21,0.073-2.805-0.227-4.135-1.367c-1.31-1.105-2.333-3.008-2.176-5.173l0.405,0.159 c-0.549,0.724-0.775,1.69-0.864,2.709c-0.107,1.02-0.084,2.117-0.37,3.242c-0.144,0.559-0.379,1.12-0.751,1.608 c-0.374,0.489-0.894,0.87-1.471,1.103c-1.16,0.467-2.496,0.398-3.666-0.085c-1.87-0.768-2.917-2.617-3.318-4.342 c-0.422-1.765-0.292-3.531,0.051-5.129c0.713-3.227,2.485-5.744,4.253-7.441c1.802-1.701,3.622-2.62,4.915-3.073 c0.651-0.225,1.163-0.369,1.521-0.427c0.354-0.073,0.54-0.102,0.544-0.085c0.004,0.018-0.175,0.082-0.518,0.187 c-0.347,0.09-0.844,0.264-1.474,0.515c-1.251,0.504-3.005,1.454-4.731,3.148c-1.694,1.689-3.379,4.16-4.04,7.278 c-0.319,1.544-0.431,3.244-0.024,4.908c0.384,1.63,1.369,3.309,3.023,3.981c1.051,0.437,2.264,0.493,3.271,0.088 c1.032-0.388,1.681-1.333,1.93-2.359c0.271-1.03,0.262-2.116,0.378-3.164c0.1-1.044,0.346-2.115,0.985-2.938l0.469-0.605 l-0.064,0.764c-0.168,1.987,0.758,3.794,1.969,4.852c1.223,1.089,2.717,1.413,3.881,1.382c1.185-0.025,2.08-0.372,2.646-0.653 C254.874,197.96,255.143,197.74,255.164,197.767z"/></g></g></g></g><g><path style="fill:#ff725e" d="M275.922,201.219c-6.878,12.002-11.909,24.681-15.131,38.133l6.248,2.513l14.39-37.663 L275.922,201.219z"/></g><g><g><polygon style="fill:#e0e0e0" points="285.959 224.802 275.253 272.975 306.026 306.381 325.892 309.231 376.545 287.058 380.073 222.059 370.97 214.844 291.121 208.894"/></g><g><g><path style="fill:#263238" d="M377.579,272.84c0,0.009-0.088,0.013-0.26,0.013c-0.202-0.004-0.452-0.008-0.76-0.014 c-0.709-0.025-1.685-0.059-2.921-0.103c-2.537-0.093-6.204-0.293-10.732-0.602c-9.056-0.614-21.551-1.787-35.263-3.763 c-13.715-1.988-26.032-4.401-34.891-6.377c-4.43-0.986-8.004-1.832-10.463-2.461c-1.198-0.308-2.143-0.551-2.83-0.728 c-0.297-0.082-0.538-0.148-0.733-0.202c-0.164-0.048-0.248-0.077-0.245-0.086c0.002-0.009,0.09,0.003,0.258,0.034 c0.198,0.04,0.443,0.09,0.745,0.152c0.692,0.154,1.645,0.365,2.852,0.633c2.472,0.568,6.057,1.359,10.494,2.298 c8.873,1.882,21.187,4.235,34.888,6.221c13.698,1.974,26.172,3.203,35.215,3.911c4.521,0.355,8.184,0.612,10.716,0.767 c1.234,0.085,2.208,0.152,2.915,0.201c0.307,0.027,0.557,0.048,0.758,0.065C377.492,272.817,377.579,272.831,377.579,272.84z"/></g></g><g><g><path style="fill:#263238" d="M311.96,352.495l-48.169,16.943c0.46,1.668,2.018,6.008,3.263,7.208 c1.246,1.2,3.483,1.553,4.639,0.266c0.635-0.707,0.857-1.782,1.666-2.282c1.118-0.691,2.512,0.131,3.795,0.414 c1.736,0.383,3.668-0.376,4.68-1.837c0.77-1.112,1.201-2.701,2.509-3.046c1.263-0.333,2.405,0.75,3.605,1.264 c1.817,0.779,4.14,0.106,5.26-1.523c1.047-1.523,1.277-3.849,3.011-4.489c1.912-0.706,3.823,1.355,5.858,1.243 c1.853-0.102,3.081-1.898,4.032-3.491c0.952-1.593,2.245-3.366,4.1-3.375c0.937-0.005,1.803,0.464,2.711,0.696 c0.908,0.232,2.051,0.132,2.529-0.674C316.017,358.86,312.766,353.916,311.96,352.495z"/></g><g><path style="fill:#e0e0e0" d="M282.072,270.314c-1.119,0.441-34.319,10.246-33.365,37.84 c0.954,27.594,21.904,50.259,21.904,50.259s-9.2,5.343-6.821,11.026c2.475,5.912,47.892-16.643,47.892-16.643 s-10.035-14.165-12.064-30.261c-2.029-16.096,9.129-19.496,9.129-19.496l3.737-17.869L282.072,270.314z"/></g><g><g><path style="fill:#263238" d="M276.802,356.872c0.008,0.154-1.642,0.299-3.566,0.903c-1.929,0.589-3.372,1.4-3.453,1.269 c-0.079-0.107,1.291-1.152,3.299-1.766C275.086,356.651,276.808,356.738,276.802,356.872z"/></g></g><g><g><path style="fill:#263238" d="M299.014,327.537c0.003,0.036-0.594,0.129-1.676,0.267c-1.082,0.131-2.645,0.347-4.569,0.645 c-3.848,0.593-9.135,1.627-14.844,3.267c-5.709,1.65-10.735,3.588-14.309,5.134c-1.788,0.771-3.226,1.42-4.211,1.885 c-0.989,0.459-1.544,0.697-1.561,0.665c-0.017-0.032,0.508-0.332,1.471-0.847c0.96-0.522,2.377-1.223,4.152-2.04 c3.547-1.637,8.578-3.64,14.314-5.298c5.737-1.648,11.062-2.63,14.936-3.131c1.937-0.253,3.51-0.414,4.601-0.483 C298.407,327.526,299.01,327.501,299.014,327.537z"/></g></g><g><g><path style="fill:#263238" d="M306.575,303.366c-0.016,0.008-0.121-0.148-0.306-0.453c-0.211-0.358-0.472-0.803-0.791-1.345 c-0.682-1.171-1.673-2.862-2.976-4.9c-2.603-4.037-6.522-9.617-12.479-13.977c-2.982-2.14-6.189-3.642-9.242-4.524 c-3.057-0.87-5.942-1.165-8.341-1.017c-2.4,0.137-4.315,0.591-5.586,1.036c-1.275,0.434-1.958,0.752-1.98,0.704 c-0.008-0.016,0.157-0.106,0.478-0.264c0.328-0.142,0.787-0.418,1.434-0.631c1.263-0.508,3.193-1.026,5.631-1.213 c2.437-0.199,5.378,0.063,8.495,0.923c3.112,0.871,6.382,2.386,9.416,4.564c3.01,2.201,5.523,4.742,7.561,7.23 c2.045,2.489,3.656,4.903,4.924,6.973c1.269,2.072,2.213,3.795,2.841,4.998c0.319,0.599,0.549,1.073,0.706,1.394 C306.517,303.184,306.591,303.357,306.575,303.366z"/></g></g><g><path style="fill:#ff725e" d="M299.426,317.149c0,0-29.753-17.47-50.549-6.166l-0.162-5.311c0,0,8.434-4.395,20.163-4.015 c11.73,0.38,31.276,10.8,31.276,10.8L299.426,317.149z"/></g></g><g><g><path style="fill:#263238" d="M408.137,356.573l-30.384,41.089c1.163,1.022,3.611,3.525,5.177,3.729 c1.566,0.204,3.822-0.217,4.129-1.884c0.169-0.916-0.168-1.876,0.238-2.732c0.561-1.184,2.064-1.358,3.223-1.885 c1.566-0.713,2.744-2.422,2.852-4.141c0.083-1.307-0.333-2.786,0.545-3.814c0.847-0.991,2.275-0.818,3.477-1.118 c1.82-0.454,3.35-2.324,3.465-4.234c0.107-1.786-0.821-3.717,0.255-5.22c1.186-1.657,3.695-1.175,5.263-2.444 c1.428-1.156,1.549-3.257,1.546-5.042c-0.003-1.785,0.181-3.907,1.656-4.992c0.745-0.548,1.659-0.689,2.493-1.038 c0.834-0.348,1.698-1.09,1.694-1.991C413.76,359.79,408.137,356.573,408.137,356.573z"/></g><g><path style="fill:#e0e0e0" d="M375.041,277.556c5.299,31.296,15.677,58.344,33.246,79.378l-30.535,40.729 c0,0-4.645-1.867-4.612-6.617c0.037-5.29,3.092-11.388,3.092-11.388c-21.445-19.004-37.162-43.506-49.009-71.719l45.652-29.681"/></g><g><g><path style="fill:#263238" d="M383.725,373.109c0.08,0.138-2.131,1.404-4.387,3.54c-2.274,2.119-3.674,4.247-3.807,4.158 c-0.115-0.056,1.118-2.361,3.451-4.538C381.298,374.078,383.676,372.99,383.725,373.109z"/></g></g><g><g><path style="fill:#263238" d="M359.952,361.164c-0.02-0.03,0.44-0.375,1.287-0.974c0.924-0.647,2.136-1.495,3.598-2.518 c3.039-2.123,7.219-5.081,11.765-8.443c4.547-3.366,8.598-6.497,11.517-8.782c1.406-1.099,2.571-2.009,3.46-2.704 c0.82-0.635,1.284-0.973,1.307-0.946c0.023,0.028-0.398,0.419-1.179,1.102c-0.78,0.685-1.926,1.654-3.358,2.834 c-2.863,2.361-6.885,5.544-11.438,8.914c-4.553,3.367-8.772,6.282-11.868,8.329c-1.547,1.024-2.81,1.837-3.693,2.382 C360.469,360.906,359.972,361.194,359.952,361.164z"/></g></g><g><g><path style="fill:#263238" d="M326.334,308.014c-0.015-0.01,0.085-0.189,0.29-0.521c0.24-0.377,0.543-0.854,0.916-1.441 c0.821-1.234,2.06-2.992,3.763-5.032c1.698-2.04,3.909-4.336,6.686-6.504c2.775-2.168,6.125-4.162,9.835-5.805 c3.719-1.638,7.405-2.801,10.796-3.729c3.448-0.817,6.628-0.951,9.28-0.991c2.657-0.027,4.806,0.181,6.272,0.423 c0.732,0.126,1.298,0.245,1.672,0.363c0.376,0.11,0.57,0.175,0.565,0.193c-0.013,0.047-0.803-0.172-2.267-0.355 c-1.463-0.178-3.599-0.329-6.237-0.255c-2.628,0.085-5.799,0.262-9.167,1.088c-3.35,0.944-7.025,2.118-10.705,3.74 c-3.677,1.628-6.992,3.586-9.751,5.708c-2.762,2.122-4.978,4.369-6.701,6.364c-1.727,1.996-3.006,3.712-3.876,4.908 c-0.405,0.563-0.735,1.021-0.995,1.383C326.478,307.864,326.349,308.024,326.334,308.014z"/></g></g><g><polygon style="fill:#ff725e" points="383.613 309.289 341.151 335.809 344.863 341.241 386.005 315"/></g></g><g><path style="fill:#263238" d="M353.76,275.288l-44.853-4.884c-4.598-0.501-7.92-4.634-7.419-9.233l3.76-34.528 c0.501-4.598,4.634-7.92,9.233-7.42l44.853,4.884c4.598,0.501,7.92,4.634,7.419,9.233l-3.759,34.528 C362.492,272.467,358.359,275.789,353.76,275.288z"/></g><g><g><path style="fill:#e0e0e0" d="M345.542,274.842l-44.853-4.884c-4.598-0.501-7.92-4.634-7.419-9.233l3.808-34.972 c0.501-4.598,4.634-7.92,9.233-7.419l44.853,4.884c4.598,0.501,7.92,4.634,7.42,9.232l-3.808,34.972 C354.273,272.021,350.14,275.343,345.542,274.842z"/></g><g><g><path style="fill:#263238" d="M345.542,274.842c0-0.047,0.752,0.103,2.151-0.105c1.363-0.199,3.496-0.935,5.191-3.031 c0.827-1.039,1.51-2.41,1.722-4.019c0.198-1.62,0.364-3.402,0.57-5.305c0.404-3.813,0.863-8.151,1.371-12.945 c0.512-4.797,1.074-10.05,1.676-15.687c0.076-0.705,0.162-1.42,0.186-2.115c-0.015-0.7-0.064-1.412-0.26-2.1 c-0.336-1.387-1.094-2.682-2.117-3.732c-1.041-1.037-2.373-1.813-3.846-2.16c-0.726-0.177-1.503-0.239-2.29-0.325 c-0.782-0.084-1.57-0.169-2.362-0.255c-12.681-1.374-26.618-2.885-41.248-4.47c-3.573-0.431-7.199,1.789-8.42,5.074 c-0.342,0.808-0.486,1.652-0.578,2.533c-0.096,0.884-0.193,1.765-0.289,2.642c-0.192,1.754-0.382,3.494-0.57,5.219 c-0.757,6.899-1.486,13.553-2.181,19.893c-0.174,1.585-0.346,3.15-0.516,4.694c-0.158,1.554-0.433,3.06-0.139,4.506 c0.543,2.905,2.713,5.307,5.338,6.183c1.294,0.475,2.712,0.471,4.068,0.661c1.36,0.151,2.694,0.299,4.003,0.444 c2.616,0.291,5.127,0.57,7.524,0.836c9.57,1.077,17.321,1.95,22.701,2.555c2.662,0.311,4.737,0.554,6.169,0.721 c0.689,0.086,1.222,0.153,1.603,0.201C345.358,274.804,345.542,274.842,345.542,274.842s-0.187-0.002-0.55-0.033 c-0.382-0.035-0.917-0.085-1.609-0.149c-1.434-0.145-3.513-0.355-6.18-0.624c-5.385-0.567-13.142-1.383-22.719-2.391 c-2.398-0.256-4.91-0.524-7.527-0.803c-1.309-0.14-2.644-0.283-4.004-0.428c-0.68-0.073-1.367-0.146-2.059-0.221 c-0.344-0.031-0.705-0.105-1.059-0.156c-0.348-0.092-0.704-0.165-1.045-0.291c-2.768-0.914-5.064-3.437-5.647-6.506 c-0.127-0.765-0.192-1.55-0.116-2.335c0.063-0.774,0.159-1.532,0.238-2.307c0.167-1.545,0.335-3.11,0.506-4.695 c0.686-6.341,1.405-12.997,2.151-19.896c0.187-1.725,0.376-3.465,0.566-5.22c0.095-0.877,0.191-1.758,0.287-2.642 c0.091-0.884,0.249-1.82,0.61-2.668c1.299-3.497,5.155-5.86,8.958-5.401c14.628,1.6,28.564,3.124,41.243,4.511 c0.792,0.087,1.58,0.174,2.362,0.26c0.776,0.086,1.566,0.149,2.349,0.34c1.557,0.371,2.964,1.196,4.06,2.294 c1.078,1.111,1.873,2.48,2.224,3.945c0.204,0.726,0.255,1.477,0.267,2.215c-0.029,0.747-0.118,1.452-0.196,2.156 c-0.625,5.635-1.207,10.885-1.739,15.68c-0.536,4.79-1.021,9.125-1.447,12.936c-0.221,1.905-0.4,3.673-0.614,5.308 c-0.234,1.656-0.951,3.057-1.81,4.112c-1.763,2.127-3.949,2.838-5.333,3.007c-0.353,0.058-0.667,0.074-0.939,0.075 c-0.271,0.015-0.498,0.007-0.68-0.015C345.726,274.871,345.542,274.842,345.542,274.842z"/></g></g></g><g><path style="fill:#263238" d="M324.502,234.498c-0.299,5.502-5.001,9.72-10.503,9.422c-5.502-0.299-9.72-5.001-9.422-10.503 c0.299-5.502,5.001-9.72,10.503-9.422C320.582,224.294,324.801,228.996,324.502,234.498z"/><path style="fill:#263238" d="M314.552,244.435c-0.193,0-0.387-0.005-0.581-0.016c-5.768-0.313-10.206-5.262-9.892-11.03 c0.151-2.794,1.382-5.362,3.465-7.231c2.083-1.868,4.766-2.808,7.564-2.663c2.794,0.152,5.362,1.383,7.23,3.466 c1.869,2.083,2.815,4.77,2.662,7.564c-0.151,2.794-1.382,5.362-3.465,7.231C319.597,243.495,317.136,244.435,314.552,244.435z M314.528,224.48c-2.338,0-4.563,0.85-6.316,2.423c-1.885,1.69-2.998,4.013-3.135,6.541c-0.283,5.218,3.731,9.694,8.949,9.977 c2.525,0.133,4.957-0.719,6.842-2.409c1.885-1.69,2.998-4.013,3.135-6.541v0c0.137-2.527-0.718-4.957-2.408-6.841 c-1.69-1.884-4.013-2.997-6.541-3.135C314.878,224.485,314.703,224.48,314.528,224.48z"/></g><g><path style="fill:#ff725e" d="M320.883,234.302c-0.299,5.502-5.001,9.72-10.503,9.421c-5.502-0.299-9.72-5.001-9.422-10.503 c0.299-5.502,5.001-9.72,10.503-9.421C316.964,224.097,321.182,228.8,320.883,234.302z"/></g><g><path style="fill:#263238" d="M322.655,258.177c-0.299,5.502-5.001,9.72-10.503,9.422c-5.502-0.299-9.72-5.001-9.422-10.503 c0.299-5.502,5.001-9.72,10.503-9.422C318.736,247.972,322.954,252.675,322.655,258.177z"/><path style="fill:#263238" d="M312.7,268.113c-0.191,0-0.383-0.005-0.575-0.016c-5.768-0.313-10.206-5.261-9.894-11.029 c0.314-5.769,5.301-10.188,11.029-9.894c2.795,0.152,5.362,1.383,7.231,3.466c1.868,2.084,2.815,4.769,2.662,7.564 C322.851,263.78,318.218,268.113,312.7,268.113z M312.68,248.158c-2.337,0-4.563,0.85-6.316,2.423 c-1.884,1.69-2.997,4.013-3.135,6.541c-0.282,5.218,3.732,9.693,8.95,9.977c5.221,0.263,9.692-3.731,9.977-8.949 c0.137-2.527-0.718-4.957-2.408-6.842c-1.69-1.884-4.014-2.998-6.542-3.135C313.03,248.163,312.855,248.158,312.68,248.158z"/></g><g><path style="fill:#455a64" d="M319.036,257.98c-0.299,5.502-5.001,9.72-10.503,9.422c-5.502-0.299-9.72-5.001-9.422-10.503 c0.299-5.502,5.001-9.72,10.503-9.422C315.117,247.776,319.335,252.478,319.036,257.98z"/></g><g><g><path style="fill:#e0e0e0" d="M342.585,268.029l-9.961-1.085c-2.792-0.304-4.809-2.814-4.505-5.605l3.176-29.169 c0.304-2.792,2.813-4.809,5.605-4.505l9.961,1.085c2.792,0.304,4.809,2.814,4.505,5.605l-3.176,29.169 C347.886,266.316,345.376,268.333,342.585,268.029z"/></g><g><g><path style="fill:#263238" d="M342.585,268.029c0.002-0.033,0.391,0.03,1.116-0.057c0.71-0.098,1.808-0.393,2.817-1.344 c0.501-0.467,0.961-1.099,1.245-1.882c0.313-0.771,0.325-1.701,0.44-2.693c0.205-1.984,0.437-4.236,0.693-6.721 c0.527-4.991,1.154-10.915,1.848-17.49c0.088-0.823,0.177-1.656,0.267-2.498c0.091-0.855,0.216-1.673,0.042-2.483 c-0.32-1.615-1.538-3.08-3.173-3.62c-0.794-0.283-1.721-0.284-2.63-0.407c-0.911-0.099-1.828-0.198-2.753-0.298 c-1.849-0.201-3.725-0.405-5.624-0.611c-1.814-0.213-3.656,0.704-4.592,2.208c-0.494,0.75-0.705,1.594-0.779,2.503 c-0.1,0.91-0.199,1.814-0.297,2.709c-0.395,3.58-0.776,7.033-1.139,10.325c-0.366,3.288-0.715,6.414-1.041,9.342 c-0.164,1.462-0.323,2.874-0.476,4.233c-0.114,1.364-0.448,2.668-0.124,3.836c0.288,1.172,0.995,2.169,1.882,2.804 c0.443,0.319,0.924,0.554,1.413,0.714c0.491,0.159,0.989,0.204,1.487,0.264c1.965,0.231,3.663,0.431,5.066,0.596 c1.36,0.169,2.43,0.302,3.199,0.398c0.341,0.048,0.614,0.086,0.831,0.116C342.49,268.001,342.585,268.02,342.585,268.029 c-0.001,0.009-0.098,0.007-0.287-0.005c-0.218-0.017-0.493-0.038-0.836-0.065c-0.772-0.072-1.846-0.173-3.21-0.3 c-1.406-0.141-3.107-0.311-5.076-0.508c-0.487-0.052-1.023-0.093-1.548-0.256c-0.522-0.163-1.038-0.407-1.515-0.743 c-0.953-0.667-1.723-1.725-2.045-2.983c-0.164-0.626-0.2-1.306-0.127-1.972c0.068-0.652,0.138-1.318,0.209-1.997 c0.143-1.36,0.292-2.773,0.446-4.236c0.311-2.929,0.644-6.057,0.994-9.347c0.354-3.292,0.725-6.747,1.109-10.328 c0.097-0.895,0.194-1.799,0.293-2.709c0.069-0.912,0.311-1.914,0.854-2.726c1.034-1.666,3.076-2.683,5.086-2.447 c1.898,0.207,3.774,0.412,5.623,0.614c0.924,0.101,1.842,0.202,2.752,0.301c0.898,0.127,1.824,0.118,2.74,0.436 c1.809,0.603,3.148,2.221,3.496,4.005c0.19,0.901,0.046,1.811-0.044,2.633c-0.093,0.842-0.185,1.675-0.277,2.497 c-0.736,6.57-1.4,12.49-1.959,17.478c-0.284,2.482-0.542,4.731-0.77,6.713c-0.128,0.974-0.153,1.93-0.498,2.75 c-0.313,0.817-0.808,1.468-1.34,1.942c-1.072,0.966-2.215,1.233-2.943,1.3C342.968,268.131,342.585,268.029,342.585,268.029z"/></g></g></g><g><g><path style="fill:#263238" d="M288.644,212.31c0.034,0.011-0.081,0.512-0.318,1.407c-0.261,0.991-0.597,2.265-0.999,3.793 c-0.831,3.205-1.878,7.656-2.89,12.606c-0.986,4.91-1.879,9.35-2.55,12.695c-0.339,1.623-0.625,2.934-0.84,3.836 c-0.213,0.902-0.348,1.398-0.383,1.391s0.032-0.516,0.185-1.431c0.177-1.01,0.404-2.308,0.677-3.866 c0.588-3.261,1.389-7.77,2.402-12.73c1.014-4.959,2.121-9.411,3.045-12.598c0.463-1.593,0.858-2.876,1.16-3.754 C288.429,212.78,288.609,212.299,288.644,212.31z"/></g></g></g><g><g><g><ellipse transform="matrix(0.0542 -0.9985 0.9985 0.0542 102.9369 407.4068)" style="fill:#e0e0e0" cx="266.529" cy="149.365" rx="25.899" ry="14.616"/></g><g><g><path style="fill:#263238" d="M281.123,150.158c-0.009-0.001-0.015-0.114-0.018-0.336c0-0.249,0-0.574,0-0.983 c-0.004-0.432,0.023-0.965,0.001-1.596c-0.027-0.635-0.058-1.361-0.093-2.175c-0.08-0.818-0.168-1.723-0.265-2.711 c-0.176-0.98-0.276-2.061-0.559-3.188c-0.473-2.269-1.215-4.831-2.512-7.444c-0.689-1.28-1.439-2.618-2.471-3.822 c-0.979-1.24-2.239-2.348-3.727-3.137c-1.481-0.793-3.247-1.2-5.032-0.978c-1.784,0.232-3.501,1.077-4.986,2.262 c-3.003,2.385-5.143,5.98-6.65,9.866c-1.517,3.91-2.335,8.232-2.618,12.669c-0.199,4.444,0.146,8.83,1.231,12.882 c1.078,4.028,2.816,7.834,5.544,10.53c1.348,1.338,2.964,2.364,4.712,2.788c1.751,0.414,3.55,0.2,5.108-0.428 c1.565-0.624,2.937-1.589,4.044-2.716c1.156-1.085,2.047-2.334,2.87-3.532c1.572-2.458,2.587-4.924,3.302-7.129 c0.403-1.09,0.619-2.154,0.9-3.109c0.203-0.972,0.389-1.862,0.557-2.666c0.123-0.805,0.232-1.523,0.328-2.152 c0.091-0.624,0.121-1.158,0.172-1.586c0.044-0.407,0.08-0.729,0.107-0.977C281.096,150.27,281.114,150.157,281.123,150.158 s0.009,0.114-0.001,0.335c-0.014,0.249-0.032,0.573-0.056,0.982c-0.034,0.431-0.048,0.968-0.123,1.596 c-0.082,0.633-0.176,1.357-0.282,2.167c-0.141,0.81-0.318,1.708-0.515,2.689c-0.268,0.964-0.472,2.038-0.865,3.142 c-0.695,2.23-1.694,4.73-3.269,7.237c-0.825,1.224-1.723,2.501-2.9,3.622c-1.126,1.161-2.535,2.169-4.166,2.83 c-1.623,0.665-3.525,0.902-5.374,0.472c-1.848-0.439-3.542-1.511-4.941-2.89c-2.83-2.783-4.599-6.657-5.702-10.743 c-1.107-4.111-1.459-8.547-1.257-13.041c0.286-4.488,1.117-8.859,2.662-12.825c1.538-3.941,3.716-7.6,6.83-10.06 c1.54-1.22,3.34-2.102,5.224-2.338c1.884-0.227,3.749,0.214,5.291,1.051c1.55,0.833,2.841,1.988,3.835,3.264 c1.049,1.241,1.802,2.608,2.491,3.914c1.294,2.663,2.017,5.256,2.467,7.548c0.271,1.14,0.357,2.229,0.52,3.217 c0.09,0.997,0.168,1.909,0.221,2.729c0.017,0.817,0.032,1.547,0.045,2.185c0.006,0.633-0.038,1.168-0.051,1.6 c-0.021,0.409-0.038,0.734-0.051,0.983C281.144,150.045,281.132,150.158,281.123,150.158z"/></g></g></g><g><path style="fill:#e0e0e0" d="M350.742,80.178c0,0-78.44-11.486-88.889,56.167c-9.102,58.933,26.479,79.41,58.413,82.047 c31.934,2.637,65.763,2.401,85.238-31.781C424.98,152.428,421.377,93.951,350.742,80.178z"/></g><g><path style="fill:#263238" d="M262.449,174.226c0,0,6.783,30.825,63.817,33.379c56.453,2.528,78.661-51.977,78.661-51.977 c-7.594-34.204-35.523-61.353-76.439-62.445c-14.969-0.399-27.61,2.666-37.635,7.248c-15.821,7.232-26.8,22.192-29.358,39.399 c-0.585,3.931-1.015,8.175-1.067,12.327C260.229,168.043,262.449,174.226,262.449,174.226z"/></g><g><g><ellipse transform="matrix(0.0542 -0.9985 0.9985 0.0542 227.9456 557.7117)" style="fill:#e0e0e0" cx="408.375" cy="158.529" rx="25.899" ry="14.616"/></g><g><g><path style="fill:#263238" d="M422.97,159.321c-0.009-0.001-0.015-0.114-0.018-0.336c0-0.249,0-0.574-0.001-0.983 c-0.004-0.432,0.023-0.965,0.001-1.596c-0.027-0.635-0.058-1.361-0.093-2.175c-0.08-0.818-0.168-1.723-0.265-2.711 c-0.176-0.98-0.275-2.061-0.558-3.188c-0.473-2.269-1.215-4.831-2.512-7.444c-0.688-1.28-1.439-2.618-2.471-3.822 c-0.979-1.24-2.239-2.348-3.727-3.137c-1.481-0.793-3.247-1.2-5.032-0.978c-1.784,0.232-3.501,1.077-4.986,2.262 c-3.003,2.385-5.143,5.98-6.65,9.866c-1.517,3.91-2.335,8.231-2.618,12.669c-0.199,4.444,0.146,8.83,1.231,12.882 c1.078,4.028,2.816,7.834,5.544,10.53c1.348,1.338,2.964,2.364,4.712,2.788c1.751,0.414,3.55,0.2,5.108-0.428 c1.565-0.624,2.937-1.589,4.044-2.716c1.156-1.085,2.047-2.334,2.87-3.532c1.572-2.458,2.587-4.924,3.302-7.129 c0.403-1.09,0.619-2.154,0.9-3.109c0.203-0.972,0.389-1.862,0.557-2.666c0.123-0.805,0.232-1.523,0.328-2.152 c0.091-0.624,0.121-1.158,0.172-1.586c0.045-0.407,0.08-0.729,0.107-0.977C422.943,159.433,422.961,159.321,422.97,159.321 c0.009,0,0.008,0.114-0.001,0.335c-0.014,0.249-0.032,0.573-0.056,0.982c-0.034,0.431-0.048,0.968-0.123,1.596 c-0.082,0.633-0.176,1.357-0.282,2.167c-0.141,0.81-0.318,1.708-0.515,2.689c-0.268,0.964-0.472,2.038-0.865,3.142 c-0.695,2.23-1.694,4.73-3.269,7.237c-0.825,1.224-1.723,2.501-2.9,3.622c-1.126,1.161-2.535,2.169-4.166,2.83 c-1.623,0.665-3.525,0.902-5.374,0.472c-1.848-0.439-3.542-1.511-4.941-2.89c-2.83-2.783-4.599-6.657-5.702-10.743 c-1.107-4.111-1.459-8.547-1.258-13.041c0.287-4.488,1.117-8.859,2.662-12.825c1.538-3.941,3.716-7.6,6.83-10.06 c1.54-1.22,3.34-2.102,5.225-2.338c1.884-0.227,3.749,0.214,5.291,1.051c1.55,0.833,2.841,1.988,3.835,3.264 c1.049,1.241,1.802,2.608,2.491,3.914c1.294,2.663,2.017,5.256,2.467,7.548c0.271,1.14,0.358,2.23,0.52,3.217 c0.09,0.997,0.168,1.909,0.221,2.73c0.017,0.817,0.032,1.547,0.045,2.185c0.006,0.633-0.038,1.168-0.051,1.6 c-0.021,0.409-0.038,0.734-0.051,0.983C422.991,159.209,422.979,159.322,422.97,159.321z"/></g></g></g><g><path style="fill:#455a64" d="M270.8,176.998c0,0,0.618-32.511,16.487-50.979c15.716-18.289,51.251-26.899,51.251-26.899 s-23.624-6.684-50.294,9.361c-11.942,7.185-20.284,19.271-22.039,33.096c-0.114,0.899-0.2,1.792-0.252,2.669 c-0.619,10.525,0.834,23.722,3.146,32.66"/></g><g><path style="fill:#455a64" d="M394.343,145.271c-19.142-8.302-42.353-6.463-59.95,4.749 c-17.597,11.212-29.005,29.871-29.568,50.729c0,0,31.245,10.585,59.462-5.478c26.01-14.807,28.358-25.22,28.358-25.22 C390.451,161.257,390.536,152.425,394.343,145.271z"/></g><g><g><path style="fill:#263238" d="M363.085,217.402c0.004,0.018-0.286,0.092-0.843,0.219c-0.558,0.119-1.376,0.325-2.447,0.5 c-2.131,0.404-5.246,0.839-9.116,1.123c-3.87,0.276-8.493,0.379-13.619,0.249c-5.126-0.129-10.75-0.471-16.647-0.919 c-5.9-0.467-11.511-1.257-16.495-2.524c-4.988-1.248-9.316-2.994-12.736-4.839c-3.428-1.844-5.941-3.774-7.57-5.205 c-0.816-0.716-1.422-1.303-1.814-1.719c-0.395-0.413-0.595-0.635-0.583-0.648c0.013-0.013,0.239,0.185,0.656,0.573 c0.414,0.391,1.04,0.951,1.872,1.64c1.661,1.376,4.187,3.246,7.611,5.034c3.417,1.79,7.72,3.485,12.68,4.699 c4.956,1.233,10.537,2.005,16.42,2.47c5.888,0.447,11.506,0.804,16.618,0.958c5.113,0.156,9.721,0.091,13.581-0.137 c3.86-0.236,6.971-0.614,9.107-0.955c1.073-0.144,1.895-0.318,2.459-0.403C362.784,217.425,363.082,217.384,363.085,217.402z"/></g></g></g><g><g><path style="fill:#e0e0e0" d="M399.655,222.404c0,0,12.883-2.912,13.082-3.369c0.199-0.457,7.257-11.997,9.948-14.522 c2.62-2.458,10.856-1.618,9.906,4.313c-0.951,5.931-1.939,6.951-1.939,6.951s7.192-4.174,14.73-4.6 c6.996-0.395,8.017,4.822,6.927,7.321c-1.364,3.126-9.042,4.946-9.042,4.946s7.433-1.233,10.075-0.563 c4.239,1.076,5.258,8.559-1.132,9.604c-6.47,1.058-8.478,1.131-8.478,1.131s11.278-0.434,13.174,1.385 c2.031,1.948,1.347,5.946-2.091,6.885c-3.306,0.902-13.15,1.889-13.15,1.889s8.803,0.048,9.498,2.324 c0.962,3.154-1.99,4.784-7.334,4.782c-3.797-0.002-11.552,1.134-11.552,1.134s-20.479,11.847-40.989,12.188 c-12.78,0.212-18.475-1.777-18.428-2.301c0.047-0.523,6.996-39.871,6.996-39.871S392.691,224.362,399.655,222.404"/></g><g><g><path style="fill:#263238" d="M432.151,235.378c-0.09-0.035,0.399-1.176,0.731-3.12c0.306-1.932,0.413-4.719-0.493-7.584 c-0.725-2.33-2.011-4.231-3.287-5.471l-0.118-0.115l0.078-0.138c0.653-1.154,1.016-2.211,1.37-2.904 c0.343-0.699,0.602-1.054,0.635-1.035c0.04,0.023-0.146,0.414-0.418,1.129c-0.285,0.708-0.586,1.784-1.222,3.01l-0.04-0.252 c1.371,1.236,2.75,3.205,3.5,5.62c0.939,2.97,0.766,5.849,0.358,7.807c-0.22,0.984-0.478,1.758-0.694,2.276 C432.323,235.116,432.184,235.392,432.151,235.378z"/></g></g><g><g><path style="fill:#263238" d="M442.045,242.501c-0.084-0.025,0.234-1.177,0.549-3.069c0.318-1.891,0.569-4.538,0.402-7.456 c-0.175-2.919-0.733-5.519-1.269-7.36c-0.533-1.843-0.983-2.95-0.903-2.984c0.033-0.014,0.177,0.249,0.409,0.739 c0.238,0.488,0.531,1.217,0.846,2.135c0.633,1.834,1.26,4.47,1.437,7.439c0.169,2.968-0.146,5.66-0.56,7.555 c-0.205,0.949-0.411,1.707-0.591,2.219C442.192,242.234,442.08,242.512,442.045,242.501z"/></g></g><g><g><path style="fill:#263238" d="M414.922,259.649c-0.027,0.024-0.436-0.402-1.156-1.194c-0.368-0.39-0.795-0.886-1.259-1.489 c-0.471-0.597-1.025-1.265-1.561-2.06c-0.56-0.778-1.156-1.642-1.735-2.61c-0.619-0.943-1.18-2.011-1.792-3.121 c-1.152-2.257-2.304-4.807-3.197-7.599c-0.883-2.796-1.447-5.54-1.754-8.062c-0.073-1.268-0.235-2.469-0.187-3.601 c0.004-0.563,0.007-1.108,0.01-1.634c0.046-0.52,0.09-1.021,0.133-1.502c0.056-0.96,0.228-1.813,0.369-2.562 c0.069-0.369,0.134-0.717,0.195-1.043c0.089-0.307,0.172-0.592,0.249-0.858c0.303-1.029,0.486-1.59,0.52-1.579 c0.128,0.032-0.675,2.284-0.966,6.074c-0.031,0.476-0.064,0.971-0.098,1.486c0.006,0.52,0.013,1.058,0.02,1.614 c-0.03,1.117,0.148,2.302,0.232,3.551c0.33,2.488,0.901,5.193,1.774,7.958c0.883,2.761,2.009,5.29,3.127,7.538 c0.596,1.106,1.137,2.171,1.735,3.117c0.558,0.97,1.132,1.838,1.669,2.624c0.512,0.803,1.042,1.482,1.488,2.092 c0.439,0.617,0.842,1.129,1.184,1.537C414.59,259.154,414.949,259.625,414.922,259.649z"/></g></g><g><path style="fill:#ff725e" d="M384.648,222.707c0,0-6.774,22.279,3.444,41.687l6.879,0.01c0,0-9.927-20.374-4.74-41.261 L384.648,222.707z"/></g><g><g><path style="fill:#263238" d="M378.469,222.29c0.031,0.032-0.42,0.492-1.189,1.358c-0.771,0.864-1.824,2.173-2.934,3.915 c-2.226,3.445-4.51,8.904-4.613,15.226c-0.096,6.325,2.016,11.854,4.133,15.367c1.055,1.776,2.066,3.118,2.809,4.005 c0.741,0.89,1.177,1.364,1.145,1.395c-0.013,0.013-0.135-0.092-0.357-0.304c-0.216-0.217-0.558-0.518-0.941-0.958 c-0.796-0.853-1.863-2.173-2.971-3.948c-2.224-3.506-4.436-9.117-4.338-15.565c0.105-6.445,2.492-11.984,4.825-15.418 c1.164-1.739,2.272-3.026,3.094-3.853c0.396-0.428,0.748-0.718,0.97-0.928C378.331,222.377,378.457,222.276,378.469,222.29z"/></g></g></g></g></g></svg>